<svg width="12" height="13" viewBox="0 0 12 13" fill="none" xmlns="http://www.w3.org/2000/svg">
<path d="M3.375 6.24347H2.625C2.43084 6.24347 2.27344 6.41792 2.27344 6.63309C2.27344 6.84825 2.43084 7.0227 2.625 7.0227H3.375C3.56916 7.0227 3.72656 6.84825 3.72656 6.63309C3.72656 6.41792 3.56916 6.24347 3.375 6.24347Z" fill="#535353"/>
<path d="M3.375 7.90581H2.625C2.43084 7.90581 2.27344 8.08025 2.27344 8.29542C2.27344 8.51059 2.43084 8.68503 2.625 8.68503H3.375C3.56916 8.68503 3.72656 8.51059 3.72656 8.29542C3.72656 8.08025 3.56916 7.90581 3.375 7.90581Z" fill="#535353"/>
<path d="M3.375 9.56815H2.625C2.43084 9.56815 2.27344 9.74259 2.27344 9.95776C2.27344 10.1729 2.43084 10.3474 2.625 10.3474H3.375C3.56916 10.3474 3.72656 10.1729 3.72656 9.95776C3.72656 9.74259 3.56916 9.56815 3.375 9.56815Z" fill="#535353"/>
<path d="M6.375 6.24347H5.625C5.43084 6.24347 5.27344 6.41792 5.27344 6.63309C5.27344 6.84825 5.43084 7.0227 5.625 7.0227H6.375C6.56916 7.0227 6.72656 6.84825 6.72656 6.63309C6.72656 6.41792 6.56916 6.24347 6.375 6.24347Z" fill="#535353"/>
<path d="M6.375 7.90581H5.625C5.43084 7.90581 5.27344 8.08025 5.27344 8.29542C5.27344 8.51059 5.43084 8.68503 5.625 8.68503H6.375C6.56916 8.68503 6.72656 8.51059 6.72656 8.29542C6.72656 8.08025 6.56916 7.90581 6.375 7.90581Z" fill="#535353"/>
<path d="M6.375 9.56815H5.625C5.43084 9.56815 5.27344 9.74259 5.27344 9.95776C5.27344 10.1729 5.43084 10.3474 5.625 10.3474H6.375C6.56916 10.3474 6.72656 10.1729 6.72656 9.95776C6.72656 9.74259 6.56916 9.56815 6.375 9.56815Z" fill="#535353"/>
<path d="M9.375 6.24347H8.625C8.43084 6.24347 8.27344 6.41792 8.27344 6.63309C8.27344 6.84825 8.43084 7.0227 8.625 7.0227H9.375C9.56916 7.0227 9.72656 6.84825 9.72656 6.63309C9.72656 6.41792 9.56916 6.24347 9.375 6.24347Z" fill="#535353"/>
<path d="M9.375 7.90581H8.625C8.43084 7.90581 8.27344 8.08025 8.27344 8.29542C8.27344 8.51059 8.43084 8.68503 8.625 8.68503H9.375C9.56916 8.68503 9.72656 8.51059 9.72656 8.29542C9.72656 8.08025 9.56916 7.90581 9.375 7.90581Z" fill="#535353"/>
<path d="M9.375 9.56815H8.625C8.43084 9.56815 8.27344 9.74259 8.27344 9.95776C8.27344 10.1729 8.43084 10.3474 8.625 10.3474H9.375C9.56916 10.3474 9.72656 10.1729 9.72656 9.95776C9.72656 9.74259 9.56916 9.56815 9.375 9.56815Z" fill="#535353"/>
<path d="M10.9453 1.46425H10.1016V0.814903C10.1016 0.599735 9.94416 0.425293 9.75 0.425293C9.55584 0.425293 9.39844 0.599735 9.39844 0.814903V1.46425H6.35156V0.814903C6.35156 0.599735 6.19416 0.425293 6 0.425293C5.80584 0.425293 5.64844 0.599735 5.64844 0.814903V1.46425H2.60156V0.814903C2.60156 0.599735 2.44416 0.425293 2.25 0.425293C2.05584 0.425293 1.89844 0.599735 1.89844 0.814903V1.46425H1.05469C0.473133 1.46425 0 1.98859 0 2.63309V11.2565C0 11.901 0.473133 12.4253 1.05469 12.4253H10.9453C11.5269 12.4253 12 11.901 12 11.2565C12 11.005 12 2.85192 12 2.63309C12 1.98859 11.5269 1.46425 10.9453 1.46425ZM0.703125 2.63309C0.703125 2.41825 0.860836 2.24347 1.05469 2.24347H1.89844V2.89283C1.89844 3.10799 2.05584 3.28244 2.25 3.28244C2.44416 3.28244 2.60156 3.10799 2.60156 2.89283V2.24347H5.64844V2.89283C5.64844 3.10799 5.80584 3.28244 6 3.28244C6.19416 3.28244 6.35156 3.10799 6.35156 2.89283V2.24347H9.39844V2.89283C9.39844 3.10799 9.55584 3.28244 9.75 3.28244C9.94416 3.28244 10.1016 3.10799 10.1016 2.89283V2.24347H10.9453C11.1392 2.24347 11.2969 2.41825 11.2969 2.63309V4.16555H0.703125V2.63309ZM10.9453 11.6461H1.05469C0.860836 11.6461 0.703125 11.4713 0.703125 11.2565V4.94477H11.2969V11.2565C11.2969 11.4713 11.1392 11.6461 10.9453 11.6461Z" fill="#535353"/>
</svg>
