<svg width="18" height="20" viewBox="0 0 18 20" fill="none" xmlns="http://www.w3.org/2000/svg">
<path d="M8.99981 10.8797C3.19611 10.8797 0 13.6253 0 18.6104C0 19.0001 0.315386 19.3155 0.705091 19.3155H17.2949C17.6842 19.3155 18 19.0001 18 18.6104C17.9996 13.6253 14.8035 10.8797 8.99981 10.8797ZM1.43546 17.9057C1.71274 14.178 4.25393 12.2895 8.99981 12.2895C13.7457 12.2895 16.2869 14.178 16.5645 17.9057H1.43546Z" fill="white"/>
<path d="M8.99981 0C6.33375 0 4.32373 2.05076 4.32373 4.77002C4.32373 7.56888 6.42127 9.84562 8.99981 9.84562C11.5784 9.84562 13.6759 7.56888 13.6759 4.7704C13.6759 2.05076 11.6659 0 8.99981 0ZM8.99981 8.43581C7.19879 8.43581 5.73353 6.79136 5.73353 4.77002C5.73353 2.823 7.10712 1.4098 8.99981 1.4098C10.8619 1.4098 12.2661 2.85432 12.2661 4.77002C12.2661 6.79136 10.8008 8.43581 8.99981 8.43581Z" fill="white"/>
</svg>
