<svg width="23" height="16" viewBox="0 0 23 16" fill="none" xmlns="http://www.w3.org/2000/svg">
<path fill-rule="evenodd" clip-rule="evenodd" d="M20.309 14.9075C21.2849 14.6612 22.0546 13.9405 22.3173 13.0261C22.8054 11.356 22.7866 7.87479 22.7866 7.87479C22.7866 7.87479 22.7866 4.41129 22.3174 2.74101C22.0546 1.82682 21.2851 1.10591 20.309 0.859856C18.5258 0.420181 11.3933 0.420181 11.3933 0.420181C11.3933 0.420181 4.27945 0.420181 2.47769 0.87728C1.50153 1.1235 0.732075 1.8444 0.469217 2.7586C0 4.41129 0 7.89237 0 7.89237C0 7.89237 0 11.356 0.469217 13.0261C0.731901 13.9403 1.5203 14.6788 2.47751 14.9249C4.26067 15.3646 11.3932 15.3646 11.3932 15.3646C11.3932 15.3646 18.5258 15.3646 20.309 14.9075ZM15.5365 7.8924L9.3219 4.40536V11.3794L15.5365 7.8924Z" fill="#36BC40"/>
</svg>
