<svg width="80" height="109" viewBox="0 0 80 109" fill="none" xmlns="http://www.w3.org/2000/svg">
<path d="M0 40.1298C0 18.0023 17.9443 0 39.9983 0C62.0535 0 79.9978 18.0023 80 40.1298C80 45.9015 78.8236 51.4122 76.5019 56.5102C66.4978 78.467 47.3237 101.645 41.6862 108.225C41.2637 108.717 40.6477 109 39.9994 109C39.3512 109 38.7352 108.717 38.3126 108.225C32.6729 101.644 13.4988 78.4648 3.49813 56.5102C1.17753 51.4122 0 45.9015 0 40.1298Z" fill="#006731"/>
<circle cx="40" cy="39" r="31" fill="white"/>
<path fill-rule="evenodd" clip-rule="evenodd" d="M44.4576 39.5621L44.2418 37.6098L36.4543 42.1055C35.7622 42.5047 35.3411 43.1509 35.2535 43.9452L34.9481 46.7304L43.2568 41.9335C44.1115 41.4404 44.566 40.5419 44.4576 39.5621Z" fill="black"/>
<path fill-rule="evenodd" clip-rule="evenodd" d="M40.5425 47.3141L45.2665 47.9625L44.9288 44.7812L40.5425 47.3141Z" fill="black"/>
<path fill-rule="evenodd" clip-rule="evenodd" d="M54.7895 32.2322C54.728 30.1621 53.9389 28.1003 52.4432 26.1031C52.2357 25.8269 52.021 25.56 51.8 25.3005L55.2398 24.9888H42.8368L42.7273 24.3238L51.331 24.7814C50.0499 23.4128 48.5531 22.3047 46.8561 21.4844C45.3666 20.7641 43.7467 20.2867 42.0904 20.073C41.8069 20.022 41.6182 19.9313 41.4994 19.8573C41.0345 19.5706 41.022 19.187 40.579 19.0109C40.3997 18.94 40.2225 18.9317 40.1006 18.9358C39.9786 18.9306 39.8024 18.939 39.6221 19.0109C39.1781 19.187 39.1666 19.5706 38.7017 19.8573C38.5829 19.9302 38.3963 20.0209 38.1138 20.072C36.4565 20.2857 34.8366 20.762 33.3461 21.4834C31.6626 22.2974 30.1731 23.3919 28.8983 24.746L25.1875 25.0816H37.3446L37.2747 25.7466L28.4376 25.2598C28.2031 25.5319 27.9748 25.8102 27.7569 26.101C26.2601 28.0992 25.47 30.1621 25.4085 32.2332C25.4001 32.524 25.4054 32.817 25.4262 33.1099C25.4147 33.1745 25.4085 33.2412 25.4085 33.3069C25.4085 33.7978 25.7274 34.2512 26.357 34.6546C26.8793 34.9882 27.6277 35.2978 28.5825 35.574C30.4347 36.1098 32.9448 36.4944 35.8467 36.6904H36.0489L35.8415 38.5864L42.4646 34.762C43.2193 34.3263 43.6613 33.5748 43.679 32.7304C43.679 32.7294 43.68 32.7294 43.68 32.7284C43.68 32.7252 43.679 32.7221 43.679 32.719C43.6811 32.6106 43.6769 32.5011 43.6644 32.3906L43.6206 31.9977C43.9625 32.7617 44.5025 33.6352 45.3624 34.4284C45.7481 34.7839 46.1734 35.0976 46.6268 35.3645C45.8169 35.3634 44.9288 35.3145 43.9646 35.2092L44.1355 36.6904H44.3524C47.2553 36.4944 49.7653 36.1087 51.6187 35.573C52.5724 35.2967 53.3208 34.9882 53.842 34.6546C54.4706 34.2523 54.7895 33.7989 54.7895 33.3079C54.7895 33.2412 54.7833 33.1755 54.7718 33.1099C54.7916 32.8159 54.7979 32.522 54.7895 32.2322ZM27.118 32.448C27.7965 32.0977 28.8212 31.7663 30.0814 31.4911C31.5928 31.1606 33.3878 30.9146 35.3474 30.7635C33.369 31.4817 31.3385 32.0675 29.2944 32.5084C28.3115 32.72 27.3108 32.9014 26.3122 33.0494C26.4508 32.8586 26.7281 32.6502 27.118 32.448ZM27.8643 34.4097C26.7927 33.9761 26.3133 33.5581 26.3133 33.5581C26.3153 33.5622 26.3185 33.5654 26.3205 33.5695C26.3174 33.5654 26.3132 33.5612 26.3112 33.5581C27.3452 33.4069 28.3823 33.2193 29.4007 33.0004C31.7471 32.4949 34.0757 31.8007 36.3293 30.9345C34.8992 32.2457 33.1939 33.237 31.377 33.8124C30.2409 34.171 29.062 34.3701 27.8643 34.4097ZM29.0818 34.8183C29.9125 34.7172 30.7308 34.5431 31.5282 34.2909C33.1762 33.7697 34.7345 32.9181 36.0916 31.8048C35.7727 32.5136 35.2682 33.3246 34.4718 34.0584C33.8923 34.5931 33.2137 35.0268 32.483 35.3374C31.0987 35.2675 29.973 35.0643 29.0818 34.8183ZM36.5357 32.6272L36.0948 35.2248C35.1733 35.3207 34.3248 35.3634 33.5472 35.3634C34.0017 35.0966 34.427 34.7828 34.8127 34.4274C35.7122 33.5977 36.2647 32.6783 36.6024 31.8903C36.5795 32.1363 36.5576 32.3812 36.5357 32.6272ZM41.0251 34.1293H39.1228V33.8656H41.0251V34.1293ZM39.202 33.6727V32.843C39.202 31.6902 40.9459 31.6902 40.9459 32.843V33.6727H39.202ZM40.1214 30.3278C40.112 30.3278 40.1037 30.3278 40.0953 30.3278C38.8612 30.3278 37.6521 30.3622 36.4867 30.4279C36.0718 30.1496 35.829 29.8212 35.829 29.4678C35.829 28.734 36.8661 28.1034 38.3536 27.8199H37.749L37.8553 26.518C37.822 26.5034 37.7896 26.4877 37.7594 26.4721C37.5489 26.3637 37.429 26.2397 37.429 26.1062C37.429 25.9415 37.6135 25.7904 37.9252 25.6664V25.6601L38.0106 24.6188C38.0158 24.5489 38.0252 24.4802 38.0377 24.4124C38.0242 24.4051 38.0148 24.3978 38.0012 24.3916H38.0002C37.9919 24.3874 37.9867 24.3822 37.9783 24.378C37.9502 24.3613 37.922 24.3446 37.8991 24.328C37.8897 24.3207 37.8814 24.3134 37.873 24.3061C37.8532 24.2894 37.8324 24.2727 37.8178 24.256C37.8074 24.2446 37.8011 24.2331 37.7928 24.2206C37.7834 24.2071 37.7719 24.1935 37.7657 24.18C37.7542 24.1539 37.7469 24.1268 37.7469 24.0997C37.7469 24.0799 37.75 24.059 37.7573 24.0392C37.7584 24.0361 37.7615 24.0319 37.7625 24.0288C37.7688 24.0121 37.7761 23.9965 37.7865 23.9809C37.7896 23.9756 37.7959 23.9704 37.799 23.9663C37.8095 23.9517 37.8209 23.9381 37.8345 23.9246C37.8386 23.9214 37.8428 23.9173 37.847 23.9141C37.8637 23.8996 37.8803 23.8839 37.9001 23.8693C37.9043 23.8662 37.9106 23.8631 37.9147 23.8599C37.9356 23.8454 37.9575 23.8308 37.9825 23.8172C37.9877 23.8141 37.9939 23.812 37.9992 23.8089C38.0252 23.7943 38.0523 23.7807 38.0815 23.7672C38.0867 23.7651 38.0919 23.763 38.0971 23.7609C38.1284 23.7474 38.1607 23.7338 38.1951 23.7203C38.2014 23.7182 38.2087 23.7161 38.2139 23.714C38.2483 23.7015 38.2827 23.689 38.3202 23.6775C38.5016 23.3878 38.7507 23.1491 39.0446 22.9771H39.0426C39.0436 22.9771 39.0447 22.976 39.0457 22.976C39.1708 22.9031 39.3052 22.8426 39.4449 22.7967C39.6096 22.655 39.643 22.4913 39.8473 22.41C39.9202 22.3808 39.9911 22.3715 40.0505 22.3704C40.0693 22.3694 40.0881 22.3704 40.1037 22.3704C40.1193 22.3694 40.137 22.3694 40.1569 22.3704C40.2152 22.3725 40.2871 22.3819 40.3601 22.41C40.5644 22.4913 40.5978 22.655 40.7625 22.7967C40.9021 22.8426 41.0356 22.9031 41.1606 22.976C41.1627 22.976 41.1638 22.9771 41.1648 22.9771H41.1617C41.4546 23.1491 41.7037 23.3878 41.8851 23.6765C42.2437 23.7901 42.4626 23.9392 42.4626 24.1018C42.4626 24.2071 42.3698 24.305 42.2103 24.3926C42.1936 24.3853 42.1759 24.379 42.1582 24.3728C41.3973 24.0705 40.1037 24.1018 40.1037 24.1018C40.1037 24.1018 40.1037 24.3936 40.1037 24.7512C40.1037 24.9419 40.1037 25.1514 40.1037 25.3464C41.2513 25.3234 41.9268 25.509 42.2853 25.6611V25.6674C42.597 25.7914 42.7815 25.9436 42.7815 26.1073C42.7815 26.2584 42.6241 26.4002 42.3552 26.518L42.4615 27.8199H41.8569C43.3444 28.1034 44.3815 28.734 44.3815 29.4678C44.3815 29.8212 44.1397 30.1496 43.7238 30.4279C42.5647 30.3622 41.3545 30.3278 40.1214 30.3278ZM47.6952 35.3384C46.9624 35.0278 46.2838 34.5931 45.7033 34.0584C44.9069 33.3246 44.4024 32.5136 44.0834 31.8048C45.4406 32.9181 46.9989 33.7697 48.6469 34.2909C49.4495 34.5452 50.274 34.7193 51.11 34.8204C50.2146 35.0664 49.0857 35.2696 47.6952 35.3384ZM52.3327 34.4107C51.1277 34.3722 49.9415 34.1731 48.7991 33.8124C46.9822 33.2381 45.2769 32.2457 43.8468 30.9345C46.1004 31.7996 48.428 32.4949 50.7754 33.0004C51.799 33.2214 52.8424 33.409 53.8827 33.5612C53.8566 33.5831 53.375 33.9886 52.3327 34.4107ZM53.8754 33.5737C53.8785 33.5695 53.8806 33.5654 53.8837 33.5612C53.8847 33.5612 53.8847 33.5612 53.8858 33.5612C53.8827 33.5643 53.8785 33.5695 53.8754 33.5737ZM50.8807 32.5084C48.8335 32.0675 46.8019 31.4806 44.8214 30.7614C46.7925 30.9126 48.5979 31.1596 50.1166 31.4911C51.3768 31.7663 52.4015 32.0967 53.08 32.448C53.473 32.6512 53.7513 32.8607 53.8879 33.0525C52.882 32.9056 51.8719 32.7221 50.8807 32.5084Z" fill="black"/>
<path d="M26.8395 57.7146V57.7094C26.8395 57.2508 27.2012 56.8755 27.6984 56.8755C28.1956 56.8755 28.5532 57.2466 28.5532 57.7042V57.7094C28.5532 58.1681 28.1915 58.5433 27.6942 58.5433C27.196 58.5433 26.8395 58.1722 26.8395 57.7146ZM28.1821 57.7146V57.7094C28.1821 57.4332 27.9788 57.2028 27.6942 57.2028C27.4097 57.2028 27.2095 57.429 27.2095 57.7053V57.7094C27.2095 57.9857 27.4118 58.216 27.6974 58.216C27.984 58.216 28.1821 57.9909 28.1821 57.7146Z" fill="#36BC40"/>
<path d="M28.868 56.9036H29.6049C29.8103 56.9036 29.9687 56.9609 30.075 57.0673C30.1647 57.1569 30.2137 57.2841 30.2137 57.4363V57.4404C30.2137 57.701 30.073 57.8647 29.8686 57.9408L30.2627 58.5161H29.8478L29.5028 58.0002H29.2245V58.5161H28.8701V56.9036H28.868ZM29.582 57.6864C29.755 57.6864 29.8541 57.5947 29.8541 57.4581V57.454C29.8541 57.3018 29.7477 57.2236 29.5757 57.2236H29.2234V57.6864H29.582Z" fill="#36BC40"/>
<path d="M30.4628 57.7146V57.7094C30.4628 57.2508 30.8193 56.8755 31.3081 56.8755C31.5979 56.8755 31.773 56.9537 31.9419 57.0965L31.7188 57.3665C31.5948 57.2633 31.4843 57.2028 31.2977 57.2028C31.0403 57.2028 30.8349 57.4311 30.8349 57.7053V57.7094C30.8349 58.0044 31.0371 58.2202 31.3227 58.2202C31.452 58.2202 31.5666 58.1879 31.6563 58.1232V57.8929H31.2988V57.5864H31.9992V58.2869C31.8335 58.4276 31.6052 58.5423 31.3102 58.5423C30.8078 58.5433 30.4628 58.191 30.4628 57.7146Z" fill="#36BC40"/>
<path d="M32.8926 56.8923H33.2199L33.9109 58.5163H33.5399L33.3929 58.1546H32.7112L32.5642 58.5163H32.2025L32.8926 56.8923ZM33.2657 57.8408L33.052 57.3176L32.8384 57.8408H33.2657Z" fill="#36BC40"/>
<path d="M34.16 56.9036H34.4874L35.2431 57.8959V56.9036H35.5933V58.5161H35.2921L34.5113 57.4915V58.5161H34.1611V56.9036H34.16Z" fill="#36BC40"/>
<path d="M35.9957 56.9036H36.3501V58.5161H35.9957V56.9036Z" fill="#36BC40"/>
<path d="M36.6825 57.7146V57.7094C36.6825 57.2508 37.0275 56.8755 37.5226 56.8755C37.827 56.8755 38.0084 56.9767 38.1585 57.1247L37.9323 57.3853C37.8082 57.2727 37.6811 57.2028 37.5195 57.2028C37.2475 57.2028 37.0525 57.429 37.0525 57.7053V57.7094C37.0525 57.9857 37.2433 58.216 37.5195 58.216C37.704 58.216 37.8166 58.142 37.9427 58.0273L38.1689 58.2556C38.0032 58.4328 37.8187 58.5433 37.508 58.5433C37.0348 58.5433 36.6825 58.1774 36.6825 57.7146Z" fill="#36BC40"/>
<path d="M39.1446 56.9036H39.5271L39.9513 57.5853L40.3745 56.9036H40.7571V58.5161H40.4048V57.4634L39.9513 58.1524H39.942L39.4927 57.4706V58.5161H39.1446V56.9036Z" fill="#36BC40"/>
<path d="M41.1188 57.8251V56.9036H41.4732V57.8157C41.4732 58.0783 41.6046 58.2139 41.8214 58.2139C42.0382 58.2139 42.1695 58.0825 42.1695 57.8271V56.9036H42.5239V57.8136C42.5239 58.3014 42.2498 58.5412 41.8172 58.5412C41.3836 58.5412 41.1188 58.2993 41.1188 57.8251Z" fill="#36BC40"/>
<path d="M42.7751 58.2807L42.9847 58.0295C43.1296 58.1493 43.2817 58.2254 43.4662 58.2254C43.6111 58.2254 43.6987 58.1681 43.6987 58.0732V58.0691C43.6987 57.9794 43.6434 57.9336 43.3745 57.8637C43.0493 57.7803 42.8398 57.6907 42.8398 57.3707V57.3665C42.8398 57.0736 43.0743 56.8808 43.4037 56.8808C43.6382 56.8808 43.8394 56.9548 44.002 57.0861L43.8175 57.353C43.6747 57.2539 43.534 57.1945 43.3985 57.1945C43.263 57.1945 43.191 57.2571 43.191 57.3352V57.3394C43.191 57.4457 43.2598 57.4801 43.5392 57.551C43.8665 57.6365 44.05 57.7543 44.05 58.0347V58.0388C44.05 58.3588 43.806 58.5381 43.4579 58.5381C43.215 58.5392 42.969 58.4537 42.7751 58.2807Z" fill="#36BC40"/>
<path d="M44.3605 56.9036H44.7149V57.5415H45.3685V56.9036H45.7229V58.5161H45.3685V57.8688H44.7149V58.5161H44.3605V56.9036Z" fill="#36BC40"/>
<path d="M46.1107 56.9036H46.8477C47.053 56.9036 47.2115 56.9609 47.3178 57.0673C47.4074 57.1569 47.4564 57.2841 47.4564 57.4363V57.4404C47.4564 57.701 47.3157 57.8647 47.1114 57.9408L47.5054 58.5161H47.0906L46.7455 58.0002H46.4672V58.5161H46.1128V56.9036H46.1107ZM46.8247 57.6864C46.9978 57.6864 47.0968 57.5947 47.0968 57.4581V57.454C47.0968 57.3018 46.9905 57.2236 46.8185 57.2236H46.4662V57.6864H46.8247Z" fill="#36BC40"/>
<path d="M47.7055 57.7146V57.7094C47.7055 57.2508 48.0672 56.8755 48.5644 56.8755C49.0616 56.8755 49.4192 57.2466 49.4192 57.7042V57.7094C49.4192 58.1681 49.0575 58.5433 48.5603 58.5433C48.062 58.5433 47.7055 58.1722 47.7055 57.7146ZM49.0481 57.7146V57.7094C49.0481 57.4332 48.8459 57.2028 48.5603 57.2028C48.2747 57.2028 48.0766 57.429 48.0766 57.7053V57.7094C48.0766 57.9857 48.2788 58.216 48.5644 58.216C48.85 58.216 49.0481 57.9909 49.0481 57.7146Z" fill="#36BC40"/>
<path d="M49.6631 57.7146V57.7094C49.6631 57.2508 50.0248 56.8755 50.522 56.8755C51.0192 56.8755 51.3767 57.2466 51.3767 57.7042V57.7094C51.3767 58.1681 51.015 58.5433 50.5178 58.5433C50.0206 58.5433 49.6631 58.1722 49.6631 57.7146ZM51.0056 57.7146V57.7094C51.0056 57.4332 50.8034 57.2028 50.5178 57.2028C50.2322 57.2028 50.0341 57.429 50.0341 57.7053V57.7094C50.0341 57.9857 50.2364 58.216 50.522 58.216C50.8076 58.216 51.0056 57.9909 51.0056 57.7146Z" fill="#36BC40"/>
<path d="M51.6926 56.9036H52.0751L52.4994 57.5853L52.9226 56.9036H53.3051V58.5161H52.9528V57.4634L52.4994 58.1524H52.49L52.0407 57.4706V58.5161H51.6926V56.9036Z" fill="#36BC40"/>
<path d="M17.3071 54.2049L17.354 54.0183C17.4822 54.0183 17.5823 53.9975 17.6542 53.9558C17.7262 53.9141 17.7835 53.8599 17.8252 53.7921C17.8669 53.7244 17.8981 53.6462 17.919 53.5566C17.9398 53.4669 17.9617 53.3731 17.9867 53.2762L18.5569 50.9799C18.5809 50.8829 18.6038 50.7901 18.6268 50.6995C18.6486 50.6098 18.657 50.5306 18.6497 50.4639C18.6424 50.3961 18.6122 50.343 18.559 50.3034C18.5048 50.2638 18.4141 50.2439 18.2869 50.2439L18.3339 50.0574H20.2935L20.2466 50.2439C20.1153 50.2439 20.0131 50.2638 19.9412 50.3034C19.8682 50.343 19.8119 50.3972 19.7723 50.4639C19.7327 50.5316 19.7025 50.6098 19.6816 50.6995C19.6608 50.7891 19.6378 50.8829 19.6139 50.9799L19.0437 53.2762C19.0197 53.3731 18.9958 53.4638 18.9739 53.5482C18.9509 53.6327 18.9457 53.7067 18.9561 53.7682C18.9666 53.8307 18.9999 53.8787 19.0573 53.9131C19.1146 53.9475 19.2115 53.9652 19.3502 53.9652C19.5159 53.9652 19.6733 53.9172 19.8213 53.8203C19.9693 53.7234 20.1059 53.6024 20.2278 53.4575C20.3508 53.3127 20.4571 53.1542 20.5489 52.9833C20.6406 52.8123 20.7157 52.6508 20.774 52.4986H20.9606L20.5353 54.2039H17.3071V54.2049Z" fill="#36BC40"/>
<path d="M22.1583 53.7847C22.1791 53.7847 22.2073 53.7681 22.2437 53.7357C22.2802 53.7034 22.3167 53.6659 22.3521 53.6242C22.3886 53.5825 22.4209 53.545 22.4501 53.5106C22.4793 53.4762 22.4939 53.4553 22.4939 53.4481L22.644 53.5262C22.5648 53.6471 22.4887 53.7566 22.4157 53.8525C22.3428 53.9494 22.2646 54.0318 22.1802 54.0985C22.0957 54.1662 22.0019 54.2173 21.9008 54.2538C21.7986 54.2903 21.6809 54.308 21.5454 54.308C21.4557 54.308 21.3807 54.2892 21.3202 54.2507C21.2597 54.2131 21.2118 54.1631 21.1774 54.1006C21.143 54.038 21.1201 53.9692 21.1096 53.8931C21.0992 53.817 21.0992 53.741 21.1096 53.6649C21.1201 53.6096 21.1336 53.545 21.1513 53.4699C21.168 53.3959 21.1889 53.3198 21.2108 53.2417C21.2326 53.1635 21.2566 53.0874 21.2806 53.0113C21.3046 52.9352 21.3254 52.8664 21.3431 52.8039C21.364 52.7278 21.388 52.6465 21.4161 52.56C21.4432 52.4734 21.4578 52.3921 21.4599 52.316C21.462 52.24 21.4422 52.1774 21.4026 52.1263C21.3629 52.0753 21.2879 52.0513 21.1774 52.0513L21.2191 51.9064L22.6805 51.3571L22.1874 53.2854C22.177 53.323 22.1645 53.3699 22.151 53.4251C22.1374 53.4804 22.126 53.5346 22.1176 53.5888C22.1093 53.6419 22.1061 53.6878 22.1103 53.7264C22.1145 53.7649 22.1312 53.7847 22.1583 53.7847ZM22.9098 50.618C22.8785 50.7671 22.8045 50.8891 22.6867 50.986C22.569 51.0829 22.4262 51.1309 22.2562 51.1309C22.1833 51.1309 22.1176 51.1163 22.0592 51.0871C22.0009 51.0579 21.9508 51.0183 21.9112 50.9683C21.8716 50.9182 21.8445 50.8599 21.831 50.7921C21.8174 50.7244 21.8185 50.6545 21.8362 50.5826C21.8737 50.4377 21.954 50.3168 22.0749 50.2199C22.1958 50.1229 22.3323 50.075 22.4845 50.075C22.5575 50.075 22.6232 50.0896 22.6815 50.1187C22.7399 50.1479 22.7899 50.1865 22.8295 50.2355C22.8692 50.2834 22.8963 50.3408 22.9098 50.4064C22.9244 50.4711 22.9244 50.5419 22.9098 50.618Z" fill="#36BC40"/>
<path d="M25.2478 54.5989C25.203 54.7824 25.1196 54.9398 24.9987 55.0732C24.8778 55.2066 24.7361 55.3171 24.5734 55.4047C24.4108 55.4922 24.2368 55.5579 24.0502 55.6017C23.8636 55.6444 23.6822 55.6663 23.5061 55.6663C23.3779 55.6663 23.2382 55.6611 23.086 55.6507C22.9338 55.6403 22.7931 55.6152 22.6638 55.5756C22.5346 55.536 22.4262 55.4787 22.3397 55.4047C22.2531 55.3307 22.2104 55.2275 22.2104 55.0961C22.2104 54.9888 22.2313 54.897 22.273 54.822C22.3146 54.747 22.3668 54.6823 22.4283 54.6302C22.4908 54.5781 22.5586 54.5343 22.6326 54.4978C22.7066 54.4613 22.7785 54.4259 22.8473 54.3915C22.7681 54.354 22.7024 54.2956 22.6503 54.2174C22.5982 54.1393 22.5867 54.0507 22.6138 53.9506C22.6347 53.8714 22.669 53.7963 22.718 53.7254C22.766 53.6546 22.8212 53.5899 22.8838 53.5316C22.9463 53.4732 23.012 53.4211 23.0808 53.3762C23.1496 53.3314 23.2152 53.2929 23.2778 53.2626C23.1152 53.1897 23.0016 53.0833 22.9359 52.9437C22.8702 52.804 22.8598 52.6351 22.9046 52.4381C22.9359 52.3037 22.9995 52.1765 23.0964 52.0577C23.1934 51.9388 23.3132 51.8336 23.4571 51.7418C23.5999 51.6501 23.7614 51.5782 23.9418 51.5271C24.1211 51.475 24.3076 51.4489 24.5015 51.4489C24.7256 51.4489 24.9247 51.4927 25.0978 51.5782C25.1082 51.5855 25.1259 51.5896 25.152 51.5917C25.178 51.5938 25.2093 51.5917 25.2458 51.5865C25.2822 51.5813 25.3198 51.5698 25.3594 51.55C25.399 51.5313 25.4396 51.5021 25.4813 51.4646C25.3813 51.4479 25.3021 51.3989 25.2458 51.3197C25.1884 51.2404 25.1738 51.1456 25.202 51.0341C25.226 50.934 25.2854 50.8506 25.3781 50.7849C25.4709 50.7193 25.5679 50.687 25.6679 50.687C25.8201 50.687 25.9254 50.7307 25.9838 50.8193C26.0421 50.9069 26.0578 51.0122 26.0307 51.1331C26.0098 51.2123 25.9733 51.2853 25.9223 51.3509C25.8701 51.4166 25.8118 51.475 25.7461 51.5271C25.6804 51.5792 25.6116 51.622 25.5418 51.6563C25.4709 51.6907 25.4073 51.7147 25.3521 51.7293C25.4522 51.8085 25.5262 51.9128 25.572 52.0399C25.6189 52.1681 25.6262 52.2943 25.595 52.4183C25.5574 52.5705 25.4866 52.7081 25.3823 52.8332C25.2791 52.9572 25.154 53.0635 25.0091 53.1521C24.8643 53.2397 24.7048 53.3085 24.5328 53.3564C24.3598 53.4044 24.1836 53.4294 24.0043 53.4294C23.9115 53.4294 23.8156 53.4221 23.7197 53.4065C23.6228 53.3908 23.5363 53.3731 23.4602 53.3523C23.4331 53.3731 23.407 53.3961 23.3852 53.42C23.3622 53.444 23.3476 53.4721 23.3414 53.5034C23.3309 53.5482 23.3549 53.5847 23.4143 53.6118C23.4727 53.6389 23.5478 53.6608 23.6374 53.6764C23.727 53.6921 23.8261 53.7025 23.9324 53.7077C24.0398 53.7129 24.1377 53.715 24.2274 53.715C24.3764 53.715 24.5203 53.7317 24.66 53.764C24.7996 53.7974 24.9205 53.8484 25.0206 53.9193C25.1207 53.9902 25.1947 54.0819 25.2406 54.1945C25.2864 54.3039 25.2895 54.4395 25.2478 54.5989ZM24.3869 55.0294C24.4286 54.8606 24.4025 54.7376 24.3087 54.6615C24.2149 54.5854 24.0272 54.5479 23.7437 54.5479C23.5947 54.5479 23.4654 54.5416 23.3549 54.5301C23.2444 54.5176 23.161 54.4999 23.1058 54.4759C23.037 54.5072 22.9818 54.5499 22.9421 54.6052C22.9025 54.6604 22.8744 54.7178 22.8567 54.7761C22.8046 54.9867 22.8358 55.1524 22.9494 55.2733C23.0631 55.3943 23.2674 55.4547 23.5613 55.4547C23.6541 55.4547 23.7458 55.4474 23.8355 55.4339C23.9251 55.4203 24.0085 55.3963 24.0846 55.3609C24.1607 55.3255 24.2243 55.2827 24.2764 55.2285C24.3306 55.1754 24.3671 55.1087 24.3869 55.0294ZM24.5787 52.4194C24.6026 52.3224 24.6256 52.2296 24.6464 52.141C24.6673 52.0524 24.6777 51.9753 24.6777 51.9096C24.6777 51.8398 24.662 51.7846 24.6308 51.7429C24.5995 51.7012 24.5422 51.6803 24.4598 51.6803C24.3764 51.6803 24.3066 51.7012 24.2503 51.7429C24.193 51.7846 24.145 51.8388 24.1054 51.9065C24.0658 51.9743 24.0314 52.0524 24.0043 52.14C23.9772 52.2286 23.9512 52.3214 23.9261 52.4183C23.898 52.5288 23.874 52.6299 23.8532 52.7196C23.8323 52.8102 23.824 52.8874 23.8271 52.9541C23.8302 53.0198 23.849 53.0708 23.8844 53.1073C23.9188 53.1438 23.9772 53.1615 24.0606 53.1615C24.144 53.1615 24.2117 53.1438 24.2649 53.1073C24.3181 53.0708 24.3639 53.0198 24.4025 52.9541C24.44 52.8884 24.4723 52.8102 24.4984 52.7196C24.5245 52.631 24.5516 52.5298 24.5787 52.4194Z" fill="#36BC40"/>
<path d="M28.4927 53.7744C28.5271 53.7744 28.5792 53.739 28.648 53.6681C28.7168 53.5972 28.7793 53.519 28.8346 53.4325L28.9899 53.5409C28.9242 53.641 28.8533 53.7379 28.7773 53.8307C28.7012 53.9245 28.6188 54.0058 28.5313 54.0767C28.4437 54.1476 28.3478 54.2038 28.2467 54.2455C28.1445 54.2872 28.0351 54.3081 27.9173 54.3081C27.7891 54.3081 27.6932 54.2831 27.6275 54.233C27.5619 54.183 27.516 54.1152 27.4899 54.0308C27.4639 53.9464 27.4545 53.8505 27.4618 53.7431C27.468 53.6358 27.4847 53.5253 27.5087 53.4117C27.5327 53.298 27.5608 53.1844 27.5921 53.0718C27.6234 52.9593 27.6505 52.8571 27.6755 52.7633C27.6963 52.6841 27.7182 52.5944 27.7432 52.4933C27.7672 52.3933 27.7808 52.2995 27.7818 52.2109C27.7839 52.1233 27.7672 52.0482 27.7328 51.9878C27.6984 51.9273 27.6327 51.8971 27.5358 51.8971C27.394 51.8971 27.2554 51.9909 27.1209 52.1775L26.6237 54.2038H25.6596L26.3902 51.2696C26.4142 51.1727 26.4382 51.082 26.4632 50.9975C26.4872 50.9131 26.4976 50.8391 26.4945 50.7776C26.4914 50.7151 26.4695 50.6661 26.4299 50.6296C26.3902 50.5931 26.3204 50.5754 26.2203 50.5754L26.262 50.4305L27.6974 49.8916L27.2158 51.8304C27.3607 51.7095 27.4972 51.6146 27.6254 51.5458C27.7537 51.477 27.9038 51.4426 28.0768 51.4426C28.229 51.4426 28.352 51.476 28.4447 51.5437C28.5386 51.6115 28.6084 51.6959 28.6543 51.7981C28.7012 51.9002 28.7262 52.0128 28.7293 52.1348C28.7324 52.2578 28.721 52.3745 28.6928 52.485C28.6616 52.6059 28.6282 52.7414 28.5917 52.8915C28.5552 53.0416 28.524 53.1823 28.4989 53.3137C28.4729 53.445 28.4573 53.5545 28.452 53.6431C28.4427 53.7306 28.4583 53.7744 28.4927 53.7744Z" fill="#36BC40"/>
<path d="M30.7859 53.7202C30.7046 53.8255 30.6139 53.9225 30.5138 54.0111C30.4138 54.0986 30.3033 54.1705 30.1824 54.2258C30.0614 54.281 29.9353 54.3092 29.804 54.3092C29.6758 54.3092 29.5653 54.2904 29.4725 54.2519C29.3787 54.2143 29.3078 54.1539 29.2578 54.0705C29.2078 53.9881 29.1796 53.8818 29.1723 53.7546C29.165 53.6264 29.1848 53.4743 29.2296 53.2981L29.5924 51.8211H29.2453L29.287 51.6918C29.4256 51.6293 29.558 51.5553 29.6862 51.4687C29.8144 51.3822 29.9364 51.2905 30.0542 51.1946C30.1719 51.0977 30.2845 50.9976 30.394 50.8944C30.5024 50.7902 30.6087 50.6891 30.7129 50.589H30.863L30.6243 51.548H31.3081L31.1528 51.8221H30.5514L30.1834 53.2991C30.173 53.3367 30.1699 53.3773 30.173 53.4211C30.1761 53.4638 30.1876 53.5034 30.2063 53.5378C30.2251 53.5722 30.2532 53.6014 30.2897 53.6233C30.3262 53.6462 30.3731 53.6567 30.4325 53.6567C30.4846 53.6567 30.5316 53.6462 30.5753 53.6254C30.6181 53.6045 30.6577 53.5785 30.6921 53.5451C30.7265 53.5118 30.7588 53.4763 30.788 53.4367C30.8172 53.3971 30.8443 53.3586 30.8682 53.32L30.9871 53.4138C30.9339 53.5118 30.8672 53.615 30.7859 53.7202Z" fill="#36BC40"/>
<path d="M33.7535 53.7744C33.7879 53.7744 33.84 53.739 33.9088 53.6681C33.9776 53.5972 34.0401 53.519 34.0954 53.4325L34.2507 53.5409C34.185 53.641 34.1141 53.7379 34.038 53.8307C33.9619 53.9245 33.8796 54.0058 33.792 54.0767C33.7034 54.1476 33.6086 54.2038 33.5064 54.2455C33.4043 54.2872 33.2948 54.3081 33.177 54.3081C33.0488 54.3081 32.9529 54.2831 32.8873 54.233C32.8216 54.183 32.7757 54.1152 32.7497 54.0308C32.7236 53.9464 32.7142 53.8505 32.7215 53.7431C32.7278 53.6358 32.7445 53.5253 32.7684 53.4117C32.7924 53.298 32.8206 53.1844 32.8518 53.0718C32.8831 52.9593 32.9102 52.8571 32.9352 52.7633C32.9561 52.6841 32.9779 52.5944 33.003 52.4933C33.0269 52.3933 33.0405 52.2995 33.0415 52.2109C33.0426 52.1223 33.0269 52.0482 32.9925 51.9878C32.9581 51.9273 32.8925 51.8971 32.7955 51.8971C32.6538 51.8971 32.5151 51.9909 32.3807 52.1775L31.8835 54.2038H30.9193L31.65 51.2696C31.674 51.1727 31.6979 51.082 31.7229 50.9975C31.7469 50.9131 31.7573 50.8391 31.7542 50.7776C31.7511 50.7151 31.7292 50.6661 31.6896 50.6296C31.65 50.5931 31.5801 50.5754 31.4801 50.5754L31.5218 50.4305L32.9581 49.8916L32.4755 51.8304C32.6204 51.7095 32.757 51.6146 32.8852 51.5458C33.0134 51.477 33.1635 51.4426 33.3365 51.4426C33.4887 51.4426 33.6107 51.476 33.7045 51.5437C33.7972 51.6115 33.8681 51.6959 33.914 51.7981C33.9609 51.9002 33.9859 52.0128 33.989 52.1348C33.9922 52.2578 33.9807 52.3745 33.9526 52.485C33.9213 52.6059 33.8879 52.7414 33.8514 52.8915C33.815 53.0416 33.7837 53.1823 33.7576 53.3137C33.7316 53.445 33.7159 53.5545 33.7107 53.6431C33.7045 53.7306 33.7191 53.7744 33.7535 53.7744Z" fill="#36BC40"/>
<path d="M37.2934 52.8727C37.2246 53.1354 37.1245 53.3574 36.9953 53.5388C36.866 53.7201 36.719 53.8681 36.5543 53.9818C36.3907 54.0954 36.2135 54.1788 36.0227 54.2309C35.833 54.283 35.6444 54.3091 35.4578 54.3091C35.2712 54.3091 35.0992 54.2715 34.9418 54.1954C34.7844 54.1193 34.6552 54.0162 34.553 53.8869C34.4508 53.7576 34.3821 53.6065 34.3456 53.4335C34.3091 53.2604 34.3185 53.0759 34.3737 52.8789C34.4425 52.6298 34.5426 52.4161 34.6718 52.2358C34.8011 52.0565 34.9481 51.9075 35.1127 51.7897C35.2764 51.6719 35.4526 51.5854 35.6412 51.528C35.8299 51.4707 36.0165 51.4426 36.2041 51.4426C36.3907 51.4426 36.5627 51.4801 36.7201 51.5562C36.8775 51.6323 37.0067 51.7355 37.1089 51.8647C37.211 51.994 37.2798 52.1451 37.3163 52.3181C37.3528 52.4912 37.3455 52.6757 37.2934 52.8727ZM36.2614 52.8727C36.3031 52.7142 36.3375 52.5631 36.3646 52.4213C36.3917 52.2796 36.4042 52.1555 36.4011 52.0482C36.398 51.9408 36.3761 51.8574 36.3365 51.797C36.2969 51.7365 36.2302 51.7063 36.1374 51.7063C36.0436 51.7063 35.9602 51.7376 35.8862 51.8001C35.8122 51.8626 35.7455 51.946 35.6871 52.0513C35.6287 52.1566 35.5766 52.2817 35.5318 52.4245C35.487 52.5683 35.4442 52.7195 35.4025 52.8779C35.3608 53.0405 35.3264 53.1927 35.2983 53.3345C35.2712 53.4762 35.2587 53.5992 35.2618 53.7055C35.2649 53.8108 35.2868 53.8942 35.3264 53.9547C35.366 54.0151 35.4328 54.0453 35.5255 54.0453C35.6193 54.0453 35.7017 54.0151 35.7746 53.9547C35.8476 53.8942 35.9133 53.8108 35.9717 53.7034C36.03 53.5961 36.0832 53.472 36.1301 53.3303C36.176 53.1875 36.2208 53.0353 36.2614 52.8727Z" fill="#36BC40"/>
<path d="M40.4476 53.8598C40.3767 53.9546 40.3017 54.0349 40.2224 54.1006C40.1432 54.1662 40.0567 54.2173 39.9629 54.2538C39.8701 54.2903 39.7628 54.308 39.6418 54.308C39.4928 54.308 39.3802 54.2705 39.302 54.1965C39.2239 54.1225 39.178 53.9984 39.1644 53.8254C39.1332 53.8629 39.0904 53.9098 39.0352 53.9651C38.9799 54.0203 38.9111 54.0735 38.8278 54.1235C38.7444 54.1735 38.6464 54.2163 38.5328 54.2528C38.4192 54.2892 38.2878 54.307 38.1388 54.307C38.0074 54.307 37.898 54.284 37.8094 54.2392C37.7218 54.1944 37.6541 54.1329 37.6072 54.0547C37.5602 53.9765 37.5331 53.8869 37.5248 53.7847C37.5165 53.6826 37.5258 53.5752 37.5529 53.4606L37.8021 52.4495C37.826 52.3525 37.8511 52.2598 37.8771 52.1701C37.9032 52.0805 37.9178 52.0013 37.9209 51.9314C37.924 51.8626 37.9074 51.8074 37.8688 51.7657C37.8302 51.724 37.7604 51.7031 37.6561 51.7031L37.6926 51.5426H38.9779L38.5786 53.1135C38.5609 53.1791 38.5442 53.249 38.5265 53.323C38.5088 53.397 38.5036 53.4668 38.5109 53.5304C38.5182 53.594 38.5422 53.6471 38.5838 53.6888C38.6255 53.7305 38.6964 53.7514 38.7965 53.7514C38.8695 53.7514 38.933 53.7274 38.9883 53.6784C39.0435 53.6305 39.0904 53.5763 39.128 53.5179C39.1697 53.4491 39.2061 53.3688 39.2364 53.2792L39.6721 51.5426H40.6467L40.2475 53.1447C40.2339 53.2031 40.2172 53.2698 40.1985 53.3438C40.1797 53.4178 40.1651 53.4877 40.1547 53.5512C40.1443 53.6148 40.1411 53.6701 40.1443 53.7149C40.1474 53.7597 40.163 53.7837 40.1912 53.7879C40.212 53.791 40.2391 53.7774 40.2746 53.7462C40.309 53.7149 40.3423 53.6784 40.3757 53.6378C40.409 53.5961 40.4382 53.5565 40.4643 53.5189C40.4903 53.4814 40.508 53.4553 40.5185 53.4408L40.6686 53.5335C40.5914 53.6576 40.5185 53.7649 40.4476 53.8598Z" fill="#36BC40"/>
<path d="M41.6942 54.0757C41.8047 54.0757 41.9152 54.0528 42.0256 54.008C42.1361 53.9631 42.2195 53.885 42.2748 53.7745C42.3227 53.6775 42.3363 53.5983 42.3133 53.5379C42.2904 53.4774 42.2466 53.4253 42.181 53.3826C42.1153 53.3398 42.0361 53.3002 41.9423 53.2658C41.8484 53.2314 41.7557 53.1928 41.6619 53.1511C41.5587 53.1063 41.4596 53.0584 41.3669 53.0083C41.2731 52.9583 41.197 52.8989 41.1365 52.8291C41.0761 52.7603 41.0385 52.6748 41.0229 52.5747C41.0073 52.4747 41.0271 52.3517 41.0823 52.2057C41.1344 52.0744 41.2074 51.9597 41.3022 51.8628C41.3971 51.7659 41.5065 51.6866 41.6316 51.6241C41.7557 51.5615 41.8912 51.5146 42.0382 51.4834C42.1851 51.4521 42.3342 51.4365 42.4864 51.4365C42.5729 51.4365 42.6782 51.4458 42.8022 51.4636C42.9262 51.4813 43.044 51.5136 43.1545 51.5615C43.265 51.6095 43.3557 51.6731 43.4266 51.7523C43.4975 51.8326 43.5246 51.9347 43.5068 52.0588C43.4891 52.1797 43.437 52.2683 43.3484 52.3235C43.2608 52.3788 43.1493 52.4069 43.0138 52.4069C42.896 52.4069 42.797 52.3746 42.7157 52.3089C42.6344 52.2433 42.5916 52.1536 42.5885 52.0389C42.5885 51.9973 42.5896 51.9556 42.5917 51.9118C42.5937 51.869 42.5885 51.8294 42.5781 51.793C42.5677 51.7565 42.5447 51.7273 42.5103 51.7054C42.4759 51.6825 42.4228 51.672 42.3498 51.672C42.2602 51.672 42.1747 51.6929 42.0934 51.7346C42.0121 51.7763 41.9548 51.8586 41.9193 51.9827C41.9016 52.0483 41.9079 52.1057 41.937 52.1536C41.9662 52.2016 42.009 52.2453 42.0642 52.2849C42.1195 52.3246 42.183 52.359 42.2539 52.3881C42.3248 52.4173 42.3915 52.4444 42.453 52.4684C42.5364 52.4997 42.6365 52.5455 42.7543 52.606C42.872 52.6665 42.9773 52.7415 43.0701 52.8311C43.1639 52.9208 43.2285 53.0281 43.2671 53.1543C43.3046 53.2804 43.2879 53.4242 43.215 53.5869C43.1462 53.7422 43.0545 53.8672 42.9408 53.9621C42.8272 54.057 42.7053 54.1299 42.575 54.182C42.4457 54.2331 42.3144 54.2686 42.181 54.2852C42.0475 54.3019 41.9297 54.3113 41.8255 54.3113C41.6838 54.3113 41.5347 54.3019 41.3773 54.2832C41.2199 54.2644 41.0761 54.2321 40.9447 54.1873C40.8134 54.1414 40.7039 54.0778 40.6153 53.9944C40.5278 53.9121 40.483 53.8068 40.483 53.6786C40.483 53.5504 40.5257 53.4451 40.6101 53.3596C40.6945 53.2752 40.8134 53.2325 40.9645 53.2325C41.1167 53.2325 41.2272 53.2752 41.296 53.3617C41.3648 53.4482 41.3992 53.5535 41.3992 53.6775C41.3992 53.7088 41.3961 53.7463 41.3888 53.7922C41.3815 53.837 41.3836 53.8798 41.394 53.9215C41.4044 53.9631 41.4315 53.9996 41.4742 54.0299C41.5222 54.0601 41.5931 54.0757 41.6942 54.0757Z" fill="#36BC40"/>
<path d="M43.56 52.8729C43.608 52.6759 43.6955 52.4903 43.8217 52.3152C43.9478 52.1411 44.1 51.9889 44.2782 51.8586C44.4565 51.7294 44.6524 51.6272 44.8661 51.5532C45.0798 51.4792 45.3018 51.4417 45.529 51.4417C45.6218 51.4417 45.7125 51.4511 45.799 51.4698C45.8855 51.4886 45.9637 51.5199 46.0346 51.5637C46.1055 51.6064 46.1628 51.6648 46.2087 51.7377C46.2535 51.8107 46.2816 51.9003 46.2921 52.0077C46.3056 52.1526 46.2733 52.2912 46.1941 52.4226C46.1149 52.5539 45.9992 52.6696 45.847 52.7697C45.6948 52.8697 45.5082 52.9531 45.2872 53.0209C45.0662 53.0886 44.8192 53.1303 44.5461 53.148C44.5492 53.196 44.5586 53.2502 44.5722 53.3086C44.5857 53.3669 44.6118 53.4222 44.6503 53.4743C44.6889 53.5264 44.7421 53.5692 44.8109 53.6036C44.8797 53.6379 44.9714 53.6557 45.085 53.6557C45.1434 53.6557 45.2132 53.6484 45.2924 53.6327C45.3717 53.6171 45.4561 53.591 45.5436 53.5546C45.6322 53.5181 45.7219 53.4712 45.8136 53.4118C45.9053 53.3534 45.9939 53.2783 46.0805 53.1887L46.2097 53.2617C46.1096 53.4201 45.995 53.565 45.8678 53.6942C45.7396 53.8235 45.6031 53.934 45.4582 54.0236C45.3133 54.1133 45.1632 54.1831 45.0068 54.2331C44.8515 54.2832 44.6962 54.3082 44.5398 54.3082C44.3533 54.3082 44.1886 54.2707 44.0447 54.1967C43.9009 54.1226 43.7852 54.0205 43.6976 53.8912C43.6101 53.762 43.5527 53.6098 43.5267 53.4347C43.5006 53.2606 43.511 53.073 43.56 52.8729ZM44.5346 52.9354C44.6139 52.9323 44.6879 52.9229 44.7577 52.9093C44.8265 52.8958 44.8942 52.8718 44.9599 52.8364C45.0256 52.802 45.0913 52.753 45.1569 52.6915C45.2226 52.6289 45.2935 52.5466 45.3696 52.4424C45.404 52.3944 45.4394 52.3277 45.4759 52.2433C45.5124 52.1588 45.5332 52.0765 45.5405 51.9973C45.5478 51.9181 45.5363 51.8493 45.5072 51.793C45.478 51.7356 45.4165 51.7106 45.3227 51.7179C45.2017 51.7283 45.0965 51.7752 45.0068 51.8576C44.9172 51.941 44.8411 52.0421 44.7785 52.163C44.716 52.2839 44.6649 52.4132 44.6253 52.5518C44.5847 52.6894 44.5555 52.8176 44.5346 52.9354Z" fill="#36BC40"/>
<path d="M51.482 52.5015C51.408 52.5411 51.3496 52.5953 51.3079 52.6652C51.2662 52.734 51.2349 52.8142 51.2151 52.9039C51.1943 52.9935 51.1714 53.0873 51.1474 53.1843L50.9504 54.0036C50.8295 54.0036 50.7263 54.0109 50.6418 54.0265C50.5574 54.0422 50.4792 54.0609 50.4083 54.0838C50.3375 54.1068 50.2697 54.1308 50.204 54.1568C50.1384 54.1829 50.0654 54.2068 49.9862 54.2298C49.907 54.2527 49.8163 54.2715 49.7141 54.2871C49.612 54.3027 49.489 54.31 49.3431 54.31C49.0522 54.31 48.7979 54.2527 48.579 54.1391C48.3591 54.0255 48.185 53.8691 48.0557 53.6721C47.9265 53.4751 47.8452 53.2447 47.8118 52.98C47.7785 52.7163 47.8024 52.4317 47.8817 52.1273C47.9578 51.8303 48.0735 51.5499 48.2288 51.2851C48.3841 51.0203 48.5717 50.79 48.7906 50.593C49.0105 50.396 49.2576 50.2407 49.5338 50.126C49.81 50.0124 50.1071 49.955 50.425 49.955C50.5668 49.955 50.6773 49.9665 50.7565 49.9884C50.8357 50.0103 50.9035 50.0364 50.9587 50.0666C51.014 50.0958 51.0671 50.1218 51.1192 50.1448C51.1714 50.1677 51.2422 50.1781 51.3319 50.1781C51.3871 50.1781 51.4361 50.1646 51.4799 50.1395C51.5237 50.1135 51.5622 50.0874 51.5966 50.0593H51.778L51.3684 51.7073H51.1714C51.1609 51.5238 51.1453 51.3424 51.1244 51.16C51.1036 50.9787 51.0661 50.815 51.0129 50.6701C50.9598 50.5252 50.8826 50.4074 50.7826 50.3178C50.6825 50.2281 50.5439 50.1833 50.3677 50.1833C50.2051 50.1833 50.0571 50.2344 49.9247 50.3366C49.7913 50.4387 49.6704 50.5773 49.562 50.7535C49.4535 50.9297 49.3545 51.135 49.267 51.3706C49.1794 51.6062 49.1023 51.8574 49.0366 52.1273C48.9678 52.3973 48.9105 52.6506 48.8657 52.8872C48.8208 53.1238 48.8021 53.3302 48.8114 53.5064C48.8198 53.6825 48.8636 53.8222 48.9438 53.9233C49.023 54.0255 49.1544 54.0765 49.3378 54.0765C49.4796 54.0765 49.5932 54.0494 49.6797 53.9932C49.7663 53.9379 49.835 53.867 49.8872 53.7805C49.9393 53.694 49.9789 53.5981 50.006 53.4928C50.0331 53.3875 50.0592 53.2844 50.0842 53.1843C50.105 53.1019 50.1259 53.0154 50.1467 52.9279C50.1676 52.8393 50.1696 52.759 50.154 52.6871C50.1384 52.6141 50.0956 52.5557 50.0248 52.5109C49.9539 52.4661 49.8371 52.4432 49.6745 52.4432L49.7214 52.2566H51.8364L51.7895 52.4432C51.6592 52.4421 51.556 52.4619 51.482 52.5015Z" fill="#36BC40"/>
<path d="M52.0344 52.7487C52.0584 52.6517 52.0823 52.5611 52.1074 52.4766C52.1313 52.3922 52.1418 52.3182 52.1386 52.2536C52.1355 52.19 52.1136 52.1399 52.074 52.1035C52.0344 52.067 51.9646 52.0493 51.8645 52.0493L51.901 51.9096L53.2592 51.402L52.9485 52.5788C53.0007 52.4401 53.0642 52.3036 53.1403 52.167C53.2164 52.0305 53.2988 51.9085 53.3895 51.8022C53.4791 51.6949 53.5781 51.6083 53.6844 51.5427C53.7918 51.477 53.9023 51.4447 54.0159 51.4447C54.165 51.4447 54.2703 51.4885 54.3318 51.5771C54.3943 51.6657 54.411 51.7751 54.3839 51.9065C54.3662 51.9825 54.3401 52.0451 54.3057 52.0962C54.2713 52.1462 54.2306 52.1848 54.1837 52.2129C54.1368 52.2411 54.0878 52.2609 54.0357 52.2723C53.9836 52.2848 53.9336 52.29 53.8856 52.29C53.8168 52.29 53.7532 52.2765 53.6959 52.2483C53.6386 52.2212 53.5917 52.19 53.5531 52.1545C53.5218 52.1472 53.4885 52.1514 53.4551 52.167C53.4207 52.1827 53.3863 52.2056 53.354 52.2369C53.3207 52.2682 53.2884 52.3057 53.256 52.3505C53.2227 52.3953 53.1945 52.4401 53.1706 52.485C53.1122 52.5955 53.0559 52.7143 53.0017 52.8394C52.9475 52.9655 52.911 53.0687 52.8902 53.1479L52.6264 54.2049H51.6675L52.0344 52.7487Z" fill="#36BC40"/>
<path d="M54.1285 52.8729C54.1764 52.6759 54.264 52.4903 54.3901 52.3152C54.5163 52.1411 54.6684 51.9889 54.8467 51.8586C55.0249 51.7294 55.2209 51.6272 55.4346 51.5532C55.6483 51.4792 55.8703 51.4417 56.0975 51.4417C56.1903 51.4417 56.281 51.4511 56.3675 51.4698C56.454 51.4886 56.5322 51.5199 56.6031 51.5637C56.6739 51.6064 56.7313 51.6648 56.7771 51.7377C56.822 51.8107 56.8501 51.9003 56.8605 52.0077C56.8741 52.1526 56.8418 52.2912 56.7625 52.4226C56.6833 52.5539 56.5676 52.6696 56.4154 52.7697C56.2633 52.8697 56.0767 52.9531 55.8557 53.0209C55.6347 53.0886 55.3877 53.1303 55.1146 53.148C55.1177 53.196 55.1271 53.2502 55.1406 53.3086C55.1542 53.3669 55.1802 53.4222 55.2188 53.4743C55.2574 53.5264 55.3105 53.5692 55.3793 53.6036C55.4481 53.6379 55.5399 53.6557 55.6535 53.6557C55.7118 53.6557 55.7817 53.6484 55.8609 53.6327C55.9401 53.6171 56.0246 53.591 56.1121 53.5546C56.2007 53.5181 56.2904 53.4712 56.3821 53.4118C56.4738 53.3534 56.5624 53.2783 56.6489 53.1887L56.7782 53.2617C56.6781 53.4201 56.5635 53.565 56.4363 53.6942C56.3081 53.8235 56.1715 53.934 56.0266 54.0236C55.8818 54.1133 55.7317 54.1831 55.5753 54.2331C55.42 54.2832 55.2647 54.3082 55.1083 54.3082C54.9217 54.3082 54.757 54.2707 54.6132 54.1967C54.4694 54.1226 54.3536 54.0205 54.2661 53.8912C54.1785 53.762 54.1212 53.6098 54.0951 53.4347C54.068 53.2606 54.0795 53.073 54.1285 52.8729ZM55.1021 52.9354C55.1813 52.9323 55.2553 52.9229 55.3251 52.9093C55.3939 52.8958 55.4617 52.8718 55.5274 52.8364C55.593 52.802 55.6587 52.753 55.7244 52.6915C55.79 52.6289 55.8609 52.5466 55.937 52.4424C55.9714 52.3944 56.0068 52.3277 56.0433 52.2433C56.0798 52.1588 56.1006 52.0765 56.1079 51.9973C56.1152 51.9181 56.1038 51.8493 56.0746 51.793C56.0454 51.7356 55.9839 51.7106 55.8901 51.7179C55.7692 51.7283 55.6639 51.7752 55.5743 51.8576C55.4846 51.941 55.4085 52.0421 55.346 52.163C55.2834 52.2839 55.2324 52.4132 55.1928 52.5518C55.1531 52.6894 55.1229 52.8176 55.1021 52.9354Z" fill="#36BC40"/>
<path d="M56.9117 52.8729C56.9596 52.6759 57.0472 52.4903 57.1733 52.3152C57.2994 52.1411 57.4516 51.9889 57.6299 51.8586C57.8081 51.7294 58.0041 51.6272 58.2178 51.5532C58.4314 51.4792 58.6535 51.4417 58.8807 51.4417C58.9735 51.4417 59.0642 51.4511 59.1507 51.4698C59.2372 51.4886 59.3154 51.5199 59.3862 51.5637C59.4571 51.6064 59.5145 51.6648 59.5603 51.7377C59.6051 51.8107 59.6333 51.9003 59.6437 52.0077C59.6573 52.1526 59.625 52.2912 59.5457 52.4226C59.4665 52.5539 59.3508 52.6696 59.1986 52.7697C59.0464 52.8697 58.8599 52.9531 58.6389 53.0209C58.4179 53.0886 58.1709 53.1303 57.8978 53.148C57.9009 53.196 57.9103 53.2502 57.9238 53.3086C57.9374 53.3669 57.9634 53.4222 58.002 53.4743C58.0406 53.5264 58.0937 53.5692 58.1625 53.6036C58.2313 53.6379 58.323 53.6557 58.4367 53.6557C58.495 53.6557 58.5649 53.6484 58.6441 53.6327C58.7233 53.6171 58.8077 53.591 58.8953 53.5546C58.9839 53.5181 59.0735 53.4712 59.1653 53.4118C59.257 53.3534 59.3456 53.2783 59.4321 53.1887L59.5614 53.2617C59.4613 53.4201 59.3466 53.565 59.2195 53.6942C59.0913 53.8235 58.9547 53.934 58.8098 54.0236C58.6649 54.1133 58.5148 54.1831 58.3585 54.2331C58.2032 54.2832 58.0479 54.3082 57.8915 54.3082C57.7049 54.3082 57.5402 54.2707 57.3964 54.1967C57.2525 54.1226 57.1368 54.0205 57.0493 53.8912C56.9617 53.762 56.9044 53.6098 56.8783 53.4347C56.8523 53.2606 56.8627 53.073 56.9117 52.8729ZM57.8863 52.9354C57.9655 52.9323 58.0395 52.9229 58.1094 52.9093C58.1782 52.8958 58.2459 52.8718 58.3116 52.8364C58.3772 52.8009 58.4429 52.753 58.5086 52.6915C58.5742 52.6289 58.6451 52.5466 58.7212 52.4424C58.7556 52.3944 58.7911 52.3277 58.8275 52.2433C58.864 52.1588 58.8849 52.0765 58.8922 51.9973C58.8984 51.9181 58.888 51.8493 58.8588 51.793C58.8296 51.7356 58.7681 51.7106 58.6743 51.7179C58.5534 51.7283 58.4481 51.7752 58.3585 51.8576C58.2688 51.941 58.1927 52.0421 58.1302 52.163C58.0677 52.2839 58.0166 52.4132 57.977 52.5518C57.9363 52.6894 57.9071 52.8176 57.8863 52.9354Z" fill="#36BC40"/>
<path d="M62.5039 53.7743C62.5248 53.7743 62.5508 53.7618 62.5842 53.7378C62.6165 53.7139 62.6498 53.6836 62.6822 53.6472C62.7145 53.6107 62.7457 53.5742 62.7749 53.5356C62.8041 53.4981 62.8291 53.4627 62.85 53.4324L63.0001 53.5461C62.9344 53.6503 62.8635 53.7483 62.7874 53.841C62.7113 53.9349 62.63 54.0151 62.5435 54.085C62.457 54.1537 62.3642 54.2079 62.2642 54.2486C62.1641 54.2882 62.0547 54.308 61.9379 54.308C61.817 54.308 61.7211 54.2872 61.6502 54.2455C61.5793 54.2038 61.5303 54.1423 61.5022 54.0589C61.4751 53.9755 61.4657 53.8713 61.4761 53.7451C61.4866 53.619 61.5126 53.4731 61.5543 53.3073L61.7201 52.6236C61.7336 52.5579 61.7513 52.487 61.7722 52.4109C61.793 52.3348 61.8014 52.2639 61.7982 52.1983C61.7951 52.1326 61.7722 52.0774 61.7305 52.0325C61.6888 51.9877 61.6148 51.9648 61.5074 51.9648C61.4074 51.9648 61.324 51.9846 61.2583 52.0242C61.1926 52.0638 61.1509 52.0909 61.1343 52.1045L60.611 54.2038H59.6468L60.0095 52.7528C60.0335 52.6559 60.0564 52.5652 60.0794 52.4808C60.1023 52.3963 60.1117 52.3223 60.1107 52.2608C60.1086 52.1983 60.0877 52.1493 60.046 52.1128C60.0043 52.0763 59.9335 52.0586 59.8334 52.0586L59.8751 51.9137L61.2385 51.3904L61.1144 51.9033C61.1488 51.8762 61.202 51.8355 61.2729 51.7845C61.3438 51.7323 61.4251 51.6813 61.5168 51.6312C61.6085 51.5812 61.7086 51.5374 61.817 51.4989C61.9254 51.4603 62.0359 51.4415 62.1464 51.4415C62.2673 51.4415 62.3715 51.4645 62.4601 51.5114C62.5487 51.5583 62.6186 51.6198 62.6697 51.6979C62.7218 51.7761 62.753 51.8658 62.7655 51.9679C62.7781 52.0701 62.7718 52.1774 62.7478 52.2921L62.5091 53.3136C62.4987 53.3511 62.4883 53.397 62.4779 53.4481C62.4674 53.5002 62.4601 53.5502 62.4549 53.5982C62.4497 53.6461 62.4497 53.6878 62.4549 53.7222C62.4601 53.7577 62.4768 53.7743 62.5039 53.7743Z" fill="#36BC40"/>
</svg>
