<svg width="16" height="16" viewBox="0 0 16 16" fill="none" xmlns="http://www.w3.org/2000/svg">
<path d="M15.1874 15.0177L15.1912 15.0171V9.65807C15.1912 7.03638 14.6044 5.01684 11.4181 5.01684C9.88628 5.01684 8.85835 5.82539 8.43869 6.59192H8.39438V5.2616H5.37323V15.0171H8.51908V10.1865C8.51908 8.91467 8.76973 7.6848 10.4072 7.6848C12.0206 7.6848 12.0447 9.13629 12.0447 10.2681V15.0177H15.1874Z" fill="#FFFFFF"/>
<path d="M0.250657 5.26217H3.40029V15.0177H0.250657V5.26217Z" fill="#FFFFFF"/>
<path d="M1.82421 0.405426C0.817158 0.405426 0 1.19145 0 2.16012C0 3.12879 0.817158 3.93125 1.82421 3.93125C2.83125 3.93125 3.64841 3.12879 3.64841 2.16012C3.64778 1.19145 2.83062 0.405426 1.82421 0.405426Z" fill="#FFFFFF"/>
</svg>
