<svg width="11" height="18" viewBox="0 0 11 18" fill="none" xmlns="http://www.w3.org/2000/svg">
<path d="M0.298666 8.29764L8.63094 0.287559C8.82366 0.102146 9.08091 0 9.35522 0C9.62953 0 9.88679 0.102146 10.0795 0.287559L10.6931 0.87731C11.0924 1.2616 11.0924 1.88618 10.6931 2.26988L3.6963 8.99627L10.7009 15.7301C10.8936 15.9155 11 16.1627 11 16.4263C11 16.6901 10.8936 16.9373 10.7009 17.1228L10.0873 17.7124C9.8944 17.8979 9.63729 18 9.36298 18C9.08868 18 8.83142 17.8979 8.6387 17.7124L0.298666 9.69504C0.105494 9.50904 -0.000605583 9.26071 2.86102e-06 8.99671C-0.000605583 8.73169 0.105494 8.48349 0.298666 8.29764Z" fill="white"/>
</svg>
