<svg width="439" height="380" viewBox="0 0 439 380" fill="none" xmlns="http://www.w3.org/2000/svg">
<path d="M91.45 372.05V372C91.45 367.6 94.92 364 99.69 364C104.46 364 107.89 367.56 107.89 371.95V372C107.89 376.4 104.42 380 99.65 380C94.87 380 91.45 376.44 91.45 372.05ZM104.33 372.05V372C104.33 369.35 102.38 367.14 99.65 367.14C96.92 367.14 95 369.31 95 371.96V372C95 374.65 96.94 376.86 99.68 376.86C102.43 376.86 104.33 374.7 104.33 372.05Z" fill="#36BC40"/>
<path d="M110.91 364.27H117.98C119.95 364.27 121.47 364.82 122.49 365.84C123.35 366.7 123.82 367.92 123.82 369.38V369.42C123.82 371.92 122.47 373.49 120.51 374.22L124.29 379.74H120.31L117 374.79H114.33V379.74H110.93V364.27H110.91ZM117.76 371.78C119.42 371.78 120.37 370.9 120.37 369.59V369.55C120.37 368.09 119.35 367.34 117.7 367.34H114.32V371.78H117.76Z" fill="#36BC40"/>
<path d="M126.21 372.05V372C126.21 367.6 129.63 364 134.32 364C137.1 364 138.78 364.75 140.4 366.12L138.26 368.71C137.07 367.72 136.01 367.14 134.22 367.14C131.75 367.14 129.78 369.33 129.78 371.96V372C129.78 374.83 131.72 376.9 134.46 376.9C135.7 376.9 136.8 376.59 137.66 375.97V373.76H134.23V370.82H140.95V377.54C139.36 378.89 137.17 379.99 134.34 379.99C129.52 380 126.21 376.62 126.21 372.05Z" fill="#36BC40"/>
<path d="M149.52 364.16H152.66L159.29 379.74H155.73L154.32 376.27H147.78L146.37 379.74H142.9L149.52 364.16ZM153.1 373.26L151.05 368.24L149 373.26H153.1Z" fill="#36BC40"/>
<path d="M161.68 364.27H164.82L172.07 373.79V364.27H175.43V379.74H172.54L165.05 369.91V379.74H161.69V364.27H161.68Z" fill="#36BC40"/>
<path d="M179.29 364.27H182.69V379.74H179.29V364.27Z" fill="#36BC40"/>
<path d="M185.88 372.05V372C185.88 367.6 189.19 364 193.94 364C196.86 364 198.6 364.97 200.04 366.39L197.87 368.89C196.68 367.81 195.46 367.14 193.91 367.14C191.3 367.14 189.43 369.31 189.43 371.96V372C189.43 374.65 191.26 376.86 193.91 376.86C195.68 376.86 196.76 376.15 197.97 375.05L200.14 377.24C198.55 378.94 196.78 380 193.8 380C189.26 380 185.88 376.49 185.88 372.05Z" fill="#36BC40"/>
<path d="M209.5 364.27H213.17L217.24 370.81L221.3 364.27H224.97V379.74H221.59V369.64L217.24 376.25H217.15L212.84 369.71V379.74H209.5V364.27Z" fill="#36BC40"/>
<path d="M228.44 373.11V364.27H231.84V373.02C231.84 375.54 233.1 376.84 235.18 376.84C237.26 376.84 238.52 375.58 238.52 373.13V364.27H241.92V373C241.92 377.68 239.29 379.98 235.14 379.98C230.98 379.98 228.44 377.66 228.44 373.11Z" fill="#36BC40"/>
<path d="M244.33 377.48L246.34 375.07C247.73 376.22 249.19 376.95 250.96 376.95C252.35 376.95 253.19 376.4 253.19 375.49V375.45C253.19 374.59 252.66 374.15 250.08 373.48C246.96 372.68 244.95 371.82 244.95 368.75V368.71C244.95 365.9 247.2 364.05 250.36 364.05C252.61 364.05 254.54 364.76 256.1 366.02L254.33 368.58C252.96 367.63 251.61 367.06 250.31 367.06C249.01 367.06 248.32 367.66 248.32 368.41V368.45C248.32 369.47 248.98 369.8 251.66 370.48C254.8 371.3 256.56 372.43 256.56 375.12V375.16C256.56 378.23 254.22 379.95 250.88 379.95C248.55 379.96 246.19 379.14 244.33 377.48Z" fill="#36BC40"/>
<path d="M259.54 364.27H262.94V370.39H269.21V364.27H272.61V379.74H269.21V373.53H262.94V379.74H259.54V364.27Z" fill="#36BC40"/>
<path d="M276.33 364.27H283.4C285.37 364.27 286.89 364.82 287.91 365.84C288.77 366.7 289.24 367.92 289.24 369.38V369.42C289.24 371.92 287.89 373.49 285.93 374.22L289.71 379.74H285.73L282.42 374.79H279.75V379.74H276.35V364.27H276.33ZM283.18 371.78C284.84 371.78 285.79 370.9 285.79 369.59V369.55C285.79 368.09 284.77 367.34 283.12 367.34H279.74V371.78H283.18Z" fill="#36BC40"/>
<path d="M291.63 372.05V372C291.63 367.6 295.1 364 299.87 364C304.64 364 308.07 367.56 308.07 371.95V372C308.07 376.4 304.6 380 299.83 380C295.05 380 291.63 376.44 291.63 372.05ZM304.51 372.05V372C304.51 369.35 302.57 367.14 299.83 367.14C297.09 367.14 295.19 369.31 295.19 371.96V372C295.19 374.65 297.13 376.86 299.87 376.86C302.61 376.86 304.51 374.7 304.51 372.05Z" fill="#36BC40"/>
<path d="M310.41 372.05V372C310.41 367.6 313.88 364 318.65 364C323.42 364 326.85 367.56 326.85 371.95V372C326.85 376.4 323.38 380 318.61 380C313.84 380 310.41 376.44 310.41 372.05ZM323.29 372.05V372C323.29 369.35 321.35 367.14 318.61 367.14C315.87 367.14 313.97 369.31 313.97 371.96V372C313.97 374.65 315.91 376.86 318.65 376.86C321.39 376.86 323.29 374.7 323.29 372.05Z" fill="#36BC40"/>
<path d="M329.88 364.27H333.55L337.62 370.81L341.68 364.27H345.35V379.74H341.97V369.64L337.62 376.25H337.53L333.22 369.71V379.74H329.88V364.27Z" fill="#36BC40"/>
<path d="M0 338.38L0.45 336.59C1.68 336.59 2.64 336.39 3.33 335.99C4.02 335.59 4.57 335.07 4.97 334.42C5.37 333.77 5.67 333.02 5.87 332.16C6.07 331.3 6.28 330.4 6.52 329.47L11.99 307.44C12.22 306.51 12.44 305.62 12.66 304.75C12.87 303.89 12.95 303.13 12.88 302.49C12.81 301.84 12.52 301.33 12.01 300.95C11.49 300.57 10.62 300.38 9.4 300.38L9.85 298.59H28.65L28.2 300.38C26.94 300.38 25.96 300.57 25.27 300.95C24.57 301.33 24.03 301.85 23.65 302.49C23.27 303.14 22.98 303.89 22.78 304.75C22.58 305.61 22.36 306.51 22.13 307.44L16.66 329.47C16.43 330.4 16.2 331.27 15.99 332.08C15.77 332.89 15.72 333.6 15.82 334.19C15.92 334.79 16.24 335.25 16.79 335.58C17.34 335.91 18.27 336.08 19.6 336.08C21.19 336.08 22.7 335.62 24.12 334.69C25.54 333.76 26.85 332.6 28.02 331.21C29.2 329.82 30.22 328.3 31.1 326.66C31.98 325.02 32.7 323.47 33.26 322.01H35.05L30.97 338.37H0V338.38Z" fill="#36BC40"/>
<path d="M46.54 334.35C46.74 334.35 47.01 334.19 47.36 333.88C47.71 333.57 48.06 333.21 48.4 332.81C48.75 332.41 49.06 332.05 49.34 331.72C49.62 331.39 49.76 331.19 49.76 331.12L51.2 331.87C50.44 333.03 49.71 334.08 49.01 335C48.31 335.93 47.56 336.72 46.75 337.36C45.94 338.01 45.04 338.5 44.07 338.85C43.09 339.2 41.96 339.37 40.66 339.37C39.8 339.37 39.08 339.19 38.5 338.82C37.92 338.46 37.46 337.98 37.13 337.38C36.8 336.78 36.58 336.12 36.48 335.39C36.38 334.66 36.38 333.93 36.48 333.2C36.58 332.67 36.71 332.05 36.88 331.33C37.04 330.62 37.24 329.89 37.45 329.14C37.66 328.39 37.89 327.66 38.12 326.93C38.35 326.2 38.55 325.54 38.72 324.94C38.92 324.21 39.15 323.43 39.42 322.6C39.68 321.77 39.82 320.99 39.84 320.26C39.86 319.53 39.67 318.93 39.29 318.44C38.91 317.95 38.19 317.72 37.13 317.72L37.53 316.33L51.55 311.06L46.82 329.56C46.72 329.92 46.6 330.37 46.47 330.9C46.34 331.43 46.23 331.95 46.15 332.47C46.07 332.98 46.04 333.42 46.08 333.79C46.12 334.16 46.28 334.35 46.54 334.35ZM53.75 303.97C53.45 305.4 52.74 306.57 51.61 307.5C50.48 308.43 49.11 308.89 47.48 308.89C46.78 308.89 46.15 308.75 45.59 308.47C45.03 308.19 44.55 307.81 44.17 307.33C43.79 306.85 43.53 306.29 43.4 305.64C43.27 304.99 43.28 304.32 43.45 303.63C43.81 302.24 44.58 301.08 45.74 300.15C46.9 299.22 48.21 298.76 49.67 298.76C50.37 298.76 51 298.9 51.56 299.18C52.12 299.46 52.6 299.83 52.98 300.3C53.36 300.76 53.62 301.31 53.75 301.94C53.89 302.56 53.89 303.24 53.75 303.97Z" fill="#36BC40"/>
<path d="M76.18 342.16C75.75 343.92 74.95 345.43 73.79 346.71C72.63 347.99 71.27 349.05 69.71 349.89C68.15 350.73 66.48 351.36 64.69 351.78C62.9 352.19 61.16 352.4 59.47 352.4C58.24 352.4 56.9 352.35 55.44 352.25C53.98 352.15 52.63 351.91 51.39 351.53C50.15 351.15 49.11 350.6 48.28 349.89C47.45 349.18 47.04 348.19 47.04 346.93C47.04 345.9 47.24 345.02 47.64 344.3C48.04 343.58 48.54 342.96 49.13 342.46C49.73 341.96 50.38 341.54 51.09 341.19C51.8 340.84 52.49 340.5 53.15 340.17C52.39 339.81 51.76 339.25 51.26 338.5C50.76 337.75 50.65 336.9 50.91 335.94C51.11 335.18 51.44 334.46 51.91 333.78C52.37 333.1 52.9 332.48 53.5 331.92C54.1 331.36 54.73 330.86 55.39 330.43C56.05 330 56.68 329.63 57.28 329.34C55.72 328.64 54.63 327.62 54 326.28C53.37 324.94 53.27 323.32 53.7 321.43C54 320.14 54.61 318.92 55.54 317.78C56.47 316.64 57.62 315.63 59 314.75C60.37 313.87 61.92 313.18 63.65 312.69C65.37 312.19 67.16 311.94 69.02 311.94C71.17 311.94 73.08 312.36 74.74 313.18C74.84 313.25 75.01 313.29 75.26 313.31C75.51 313.33 75.81 313.31 76.16 313.26C76.51 313.21 76.87 313.1 77.25 312.91C77.63 312.73 78.02 312.45 78.42 312.09C77.46 311.93 76.7 311.46 76.16 310.7C75.61 309.94 75.47 309.03 75.74 307.96C75.97 307 76.54 306.2 77.43 305.57C78.32 304.94 79.25 304.63 80.21 304.63C81.67 304.63 82.68 305.05 83.24 305.9C83.8 306.74 83.95 307.75 83.69 308.91C83.49 309.67 83.14 310.37 82.65 311C82.15 311.63 81.59 312.19 80.96 312.69C80.33 313.19 79.67 313.6 79 313.93C78.32 314.26 77.71 314.49 77.18 314.63C78.14 315.39 78.85 316.39 79.29 317.61C79.74 318.84 79.81 320.05 79.51 321.24C79.15 322.7 78.47 324.02 77.47 325.22C76.48 326.41 75.28 327.43 73.89 328.28C72.5 329.12 70.97 329.78 69.32 330.24C67.66 330.7 65.97 330.94 64.25 330.94C63.36 330.94 62.44 330.87 61.52 330.72C60.59 330.57 59.76 330.4 59.03 330.2C58.77 330.4 58.52 330.62 58.31 330.85C58.09 331.08 57.95 331.35 57.89 331.65C57.79 332.08 58.02 332.43 58.59 332.69C59.15 332.95 59.87 333.16 60.73 333.31C61.59 333.46 62.54 333.56 63.56 333.61C64.59 333.66 65.53 333.68 66.39 333.68C67.82 333.68 69.2 333.84 70.54 334.15C71.88 334.47 73.04 334.96 74 335.64C74.96 336.32 75.67 337.2 76.11 338.28C76.55 339.33 76.58 340.63 76.18 342.16ZM67.92 346.29C68.32 344.67 68.07 343.49 67.17 342.76C66.27 342.03 64.47 341.67 61.75 341.67C60.32 341.67 59.08 341.61 58.02 341.5C56.96 341.38 56.16 341.21 55.63 340.98C54.97 341.28 54.44 341.69 54.06 342.22C53.68 342.75 53.41 343.3 53.24 343.86C52.74 345.88 53.04 347.47 54.13 348.63C55.22 349.79 57.18 350.37 60 350.37C60.89 350.37 61.77 350.3 62.63 350.17C63.49 350.04 64.29 349.81 65.02 349.47C65.75 349.13 66.36 348.72 66.86 348.2C67.38 347.69 67.73 347.05 67.92 346.29ZM69.76 321.25C69.99 320.32 70.21 319.43 70.41 318.58C70.61 317.73 70.71 316.99 70.71 316.36C70.71 315.69 70.56 315.16 70.26 314.76C69.96 314.36 69.41 314.16 68.62 314.16C67.82 314.16 67.15 314.36 66.61 314.76C66.06 315.16 65.6 315.68 65.22 316.33C64.84 316.98 64.51 317.73 64.25 318.57C63.99 319.42 63.74 320.31 63.5 321.24C63.23 322.3 63 323.27 62.8 324.13C62.6 325 62.52 325.74 62.55 326.38C62.58 327.01 62.76 327.5 63.1 327.85C63.43 328.2 63.99 328.37 64.79 328.37C65.59 328.37 66.24 328.2 66.75 327.85C67.26 327.5 67.7 327.01 68.07 326.38C68.43 325.75 68.74 325 68.99 324.13C69.24 323.28 69.5 322.31 69.76 321.25Z" fill="#36BC40"/>
<path d="M107.31 334.25C107.64 334.25 108.14 333.91 108.8 333.23C109.46 332.55 110.06 331.8 110.59 330.97L112.08 332.01C111.45 332.97 110.77 333.9 110.04 334.79C109.31 335.69 108.52 336.47 107.68 337.15C106.84 337.83 105.92 338.37 104.95 338.77C103.97 339.17 102.92 339.37 101.79 339.37C100.56 339.37 99.64 339.13 99.01 338.65C98.38 338.17 97.94 337.52 97.69 336.71C97.44 335.9 97.35 334.98 97.42 333.95C97.48 332.92 97.64 331.86 97.87 330.77C98.1 329.68 98.37 328.59 98.67 327.51C98.97 326.43 99.23 325.45 99.47 324.55C99.67 323.79 99.88 322.93 100.12 321.96C100.35 321 100.48 320.1 100.49 319.25C100.51 318.41 100.35 317.69 100.02 317.11C99.69 316.53 99.06 316.24 98.13 316.24C96.77 316.24 95.44 317.14 94.15 318.93L89.38 338.37H80.13L87.14 310.22C87.37 309.29 87.6 308.42 87.84 307.61C88.07 306.8 88.17 306.09 88.14 305.5C88.11 304.9 87.9 304.43 87.52 304.08C87.14 303.73 86.47 303.56 85.51 303.56L85.91 302.17L99.68 297L95.06 315.6C96.45 314.44 97.76 313.53 98.99 312.87C100.22 312.21 101.66 311.88 103.32 311.88C104.78 311.88 105.96 312.2 106.85 312.85C107.75 313.5 108.42 314.31 108.86 315.29C109.31 316.27 109.55 317.35 109.58 318.52C109.61 319.7 109.5 320.82 109.23 321.88C108.93 323.04 108.61 324.34 108.26 325.78C107.91 327.22 107.61 328.57 107.37 329.83C107.12 331.09 106.97 332.14 106.92 332.99C106.83 333.83 106.98 334.25 107.31 334.25Z" fill="#36BC40"/>
<path d="M129.31 333.73C128.53 334.74 127.66 335.67 126.7 336.52C125.74 337.36 124.68 338.05 123.52 338.58C122.36 339.11 121.15 339.38 119.89 339.38C118.66 339.38 117.6 339.2 116.71 338.83C115.81 338.47 115.13 337.89 114.65 337.09C114.17 336.3 113.9 335.28 113.83 334.06C113.76 332.83 113.95 331.37 114.38 329.68L117.86 315.51H114.53L114.93 314.27C116.26 313.67 117.53 312.96 118.76 312.13C119.99 311.3 121.16 310.42 122.29 309.5C123.42 308.57 124.5 307.61 125.55 306.62C126.59 305.62 127.61 304.65 128.61 303.69H130.05L127.76 312.89H134.32L132.83 315.52H127.06L123.53 329.69C123.43 330.05 123.4 330.44 123.43 330.86C123.46 331.27 123.57 331.65 123.75 331.98C123.93 332.31 124.2 332.59 124.55 332.8C124.9 333.02 125.35 333.12 125.92 333.12C126.42 333.12 126.87 333.02 127.29 332.82C127.7 332.62 128.08 332.37 128.41 332.05C128.74 331.73 129.05 331.39 129.33 331.01C129.61 330.63 129.87 330.26 130.1 329.89L131.24 330.79C130.73 331.73 130.09 332.72 129.31 333.73Z" fill="#36BC40"/>
<path d="M157.78 334.25C158.11 334.25 158.61 333.91 159.27 333.23C159.93 332.55 160.53 331.8 161.06 330.97L162.55 332.01C161.92 332.97 161.24 333.9 160.51 334.79C159.78 335.69 158.99 336.47 158.15 337.15C157.3 337.83 156.39 338.37 155.41 338.77C154.43 339.17 153.38 339.37 152.25 339.37C151.02 339.37 150.1 339.13 149.47 338.65C148.84 338.17 148.4 337.52 148.15 336.71C147.9 335.9 147.81 334.98 147.88 333.95C147.94 332.92 148.1 331.86 148.33 330.77C148.56 329.68 148.83 328.59 149.13 327.51C149.43 326.43 149.69 325.45 149.93 324.55C150.13 323.79 150.34 322.93 150.58 321.96C150.81 321 150.94 320.1 150.95 319.25C150.96 318.4 150.81 317.69 150.48 317.11C150.15 316.53 149.52 316.24 148.59 316.24C147.23 316.24 145.9 317.14 144.61 318.93L139.84 338.37H130.59L137.6 310.22C137.83 309.29 138.06 308.42 138.3 307.61C138.53 306.8 138.63 306.09 138.6 305.5C138.57 304.9 138.36 304.43 137.98 304.08C137.6 303.73 136.93 303.56 135.97 303.56L136.37 302.17L150.15 297L145.52 315.6C146.91 314.44 148.22 313.53 149.45 312.87C150.68 312.21 152.12 311.88 153.78 311.88C155.24 311.88 156.41 312.2 157.31 312.85C158.2 313.5 158.88 314.31 159.32 315.29C159.77 316.27 160.01 317.35 160.04 318.52C160.07 319.7 159.96 320.82 159.69 321.88C159.39 323.04 159.07 324.34 158.72 325.78C158.37 327.22 158.07 328.57 157.82 329.83C157.57 331.09 157.42 332.14 157.37 332.99C157.31 333.83 157.45 334.25 157.78 334.25Z" fill="#36BC40"/>
<path d="M191.74 325.6C191.08 328.12 190.12 330.25 188.88 331.99C187.64 333.73 186.23 335.15 184.65 336.24C183.08 337.33 181.38 338.13 179.55 338.63C177.73 339.13 175.92 339.38 174.13 339.38C172.34 339.38 170.69 339.02 169.18 338.29C167.67 337.56 166.43 336.57 165.45 335.33C164.47 334.09 163.81 332.64 163.46 330.98C163.11 329.32 163.2 327.55 163.73 325.66C164.39 323.27 165.35 321.22 166.59 319.49C167.83 317.77 169.24 316.34 170.82 315.21C172.39 314.08 174.08 313.25 175.89 312.7C177.7 312.15 179.49 311.88 181.29 311.88C183.08 311.88 184.73 312.24 186.24 312.97C187.75 313.7 188.99 314.69 189.97 315.93C190.95 317.17 191.61 318.62 191.96 320.28C192.31 321.94 192.24 323.71 191.74 325.6ZM181.84 325.6C182.24 324.08 182.57 322.63 182.83 321.27C183.09 319.91 183.21 318.72 183.18 317.69C183.15 316.66 182.94 315.86 182.56 315.28C182.18 314.7 181.54 314.41 180.65 314.41C179.75 314.41 178.95 314.71 178.24 315.31C177.53 315.91 176.89 316.71 176.33 317.72C175.77 318.73 175.27 319.93 174.84 321.3C174.41 322.68 174 324.13 173.6 325.65C173.2 327.21 172.87 328.67 172.6 330.03C172.34 331.39 172.22 332.57 172.25 333.59C172.28 334.6 172.49 335.4 172.87 335.98C173.25 336.56 173.89 336.85 174.78 336.85C175.68 336.85 176.47 336.56 177.17 335.98C177.87 335.4 178.5 334.6 179.06 333.57C179.62 332.54 180.13 331.35 180.58 329.99C181.02 328.62 181.45 327.16 181.84 325.6Z" fill="#36BC40"/>
<path d="M222 335.07C221.32 335.98 220.6 336.75 219.84 337.38C219.08 338.01 218.25 338.5 217.35 338.85C216.46 339.2 215.43 339.37 214.27 339.37C212.84 339.37 211.76 339.01 211.01 338.3C210.26 337.59 209.82 336.4 209.69 334.74C209.39 335.1 208.98 335.55 208.45 336.08C207.92 336.61 207.26 337.12 206.46 337.6C205.66 338.08 204.72 338.49 203.63 338.84C202.54 339.19 201.28 339.36 199.85 339.36C198.59 339.36 197.54 339.14 196.69 338.71C195.85 338.28 195.2 337.69 194.75 336.94C194.3 336.19 194.04 335.33 193.96 334.35C193.88 333.37 193.97 332.34 194.23 331.24L196.62 321.54C196.85 320.61 197.09 319.72 197.34 318.86C197.59 318 197.73 317.24 197.76 316.57C197.79 315.91 197.63 315.38 197.26 314.98C196.89 314.58 196.22 314.38 195.22 314.38L195.57 312.84H207.9L204.07 327.91C203.9 328.54 203.74 329.21 203.57 329.92C203.4 330.63 203.35 331.3 203.42 331.91C203.49 332.52 203.72 333.03 204.12 333.43C204.52 333.83 205.2 334.03 206.16 334.03C206.86 334.03 207.47 333.8 208 333.33C208.53 332.87 208.98 332.35 209.34 331.79C209.74 331.13 210.09 330.36 210.38 329.5L214.56 312.84H223.91L220.08 328.21C219.95 328.77 219.79 329.41 219.61 330.12C219.43 330.83 219.29 331.5 219.19 332.11C219.09 332.72 219.06 333.25 219.09 333.68C219.12 334.11 219.27 334.34 219.54 334.38C219.74 334.41 220 334.28 220.34 333.98C220.67 333.68 220.99 333.33 221.31 332.94C221.63 332.54 221.91 332.16 222.16 331.8C222.41 331.44 222.58 331.19 222.68 331.05L224.12 331.94C223.38 333.13 222.68 334.16 222 335.07Z" fill="#36BC40"/>
<path d="M233.96 337.14C235.02 337.14 236.08 336.92 237.14 336.49C238.2 336.06 239 335.31 239.53 334.25C239.99 333.32 240.12 332.56 239.9 331.98C239.68 331.4 239.26 330.9 238.63 330.49C238 330.08 237.24 329.7 236.34 329.37C235.44 329.04 234.55 328.67 233.65 328.27C232.66 327.84 231.71 327.38 230.82 326.9C229.92 326.42 229.19 325.85 228.61 325.18C228.03 324.52 227.67 323.7 227.52 322.74C227.37 321.78 227.56 320.6 228.09 319.2C228.59 317.94 229.29 316.84 230.2 315.91C231.11 314.98 232.16 314.22 233.36 313.62C234.55 313.02 235.85 312.57 237.26 312.27C238.67 311.97 240.1 311.82 241.56 311.82C242.39 311.82 243.4 311.91 244.59 312.08C245.78 312.25 246.91 312.56 247.97 313.02C249.03 313.48 249.9 314.09 250.58 314.85C251.26 315.62 251.52 316.6 251.35 317.79C251.18 318.95 250.68 319.8 249.83 320.33C248.99 320.86 247.92 321.13 246.62 321.13C245.49 321.13 244.54 320.82 243.76 320.19C242.98 319.56 242.57 318.7 242.54 317.6C242.54 317.2 242.55 316.8 242.57 316.38C242.59 315.97 242.54 315.59 242.44 315.24C242.34 314.89 242.12 314.61 241.79 314.4C241.46 314.18 240.95 314.08 240.25 314.08C239.39 314.08 238.57 314.28 237.79 314.68C237.01 315.08 236.46 315.87 236.12 317.06C235.95 317.69 236.01 318.24 236.29 318.7C236.57 319.16 236.98 319.58 237.51 319.96C238.04 320.34 238.65 320.67 239.33 320.95C240.01 321.23 240.65 321.49 241.24 321.72C242.04 322.02 243 322.46 244.13 323.04C245.26 323.62 246.27 324.34 247.16 325.2C248.06 326.06 248.68 327.09 249.05 328.3C249.41 329.51 249.25 330.89 248.55 332.45C247.89 333.94 247.01 335.14 245.92 336.05C244.83 336.96 243.66 337.66 242.41 338.16C241.17 338.65 239.91 338.99 238.63 339.15C237.35 339.31 236.22 339.4 235.22 339.4C233.86 339.4 232.43 339.31 230.92 339.13C229.41 338.95 228.03 338.64 226.77 338.21C225.51 337.77 224.46 337.16 223.61 336.36C222.77 335.57 222.34 334.56 222.34 333.33C222.34 332.1 222.75 331.09 223.56 330.27C224.37 329.46 225.51 329.05 226.96 329.05C228.42 329.05 229.48 329.46 230.14 330.29C230.8 331.12 231.13 332.13 231.13 333.32C231.13 333.62 231.1 333.98 231.03 334.42C230.96 334.85 230.98 335.26 231.08 335.66C231.18 336.06 231.44 336.41 231.85 336.7C232.31 336.99 232.99 337.14 233.96 337.14Z" fill="#36BC40"/>
<path d="M251.86 325.6C252.32 323.71 253.16 321.93 254.37 320.25C255.58 318.58 257.04 317.12 258.75 315.87C260.46 314.63 262.34 313.65 264.39 312.94C266.44 312.23 268.57 311.87 270.75 311.87C271.64 311.87 272.51 311.96 273.34 312.14C274.17 312.32 274.92 312.62 275.6 313.04C276.28 313.45 276.83 314.01 277.27 314.71C277.7 315.41 277.97 316.27 278.07 317.3C278.2 318.69 277.89 320.02 277.13 321.28C276.37 322.54 275.26 323.65 273.8 324.61C272.34 325.57 270.55 326.37 268.43 327.02C266.31 327.67 263.94 328.07 261.32 328.24C261.35 328.7 261.44 329.22 261.57 329.78C261.7 330.34 261.95 330.87 262.32 331.37C262.69 331.87 263.2 332.28 263.86 332.61C264.52 332.94 265.4 333.11 266.49 333.11C267.05 333.11 267.72 333.04 268.48 332.89C269.24 332.74 270.05 332.49 270.89 332.14C271.74 331.79 272.6 331.34 273.48 330.77C274.36 330.21 275.21 329.49 276.04 328.63L277.28 329.33C276.32 330.85 275.22 332.24 274 333.48C272.77 334.72 271.46 335.78 270.07 336.64C268.68 337.5 267.24 338.17 265.74 338.65C264.25 339.13 262.76 339.37 261.26 339.37C259.47 339.37 257.89 339.01 256.51 338.3C255.13 337.59 254.02 336.61 253.18 335.37C252.34 334.13 251.79 332.67 251.54 330.99C251.29 329.32 251.39 327.52 251.86 325.6ZM261.21 326.2C261.97 326.17 262.68 326.08 263.35 325.95C264.01 325.82 264.66 325.59 265.29 325.25C265.92 324.92 266.55 324.45 267.18 323.86C267.81 323.26 268.49 322.47 269.22 321.47C269.55 321.01 269.89 320.37 270.24 319.56C270.59 318.75 270.79 317.96 270.86 317.2C270.93 316.44 270.82 315.78 270.54 315.24C270.26 314.69 269.67 314.45 268.77 314.52C267.61 314.62 266.6 315.07 265.74 315.86C264.88 316.66 264.15 317.63 263.55 318.79C262.95 319.95 262.46 321.19 262.08 322.52C261.69 323.84 261.41 325.07 261.21 326.2Z" fill="#36BC40"/>
<path d="M327.86 322.04C327.15 322.42 326.59 322.94 326.19 323.61C325.79 324.27 325.49 325.04 325.3 325.9C325.1 326.76 324.88 327.66 324.65 328.59L322.76 336.45C321.6 336.45 320.61 336.52 319.8 336.67C318.99 336.82 318.24 337 317.56 337.22C316.88 337.44 316.23 337.67 315.6 337.92C314.97 338.17 314.27 338.4 313.51 338.62C312.75 338.84 311.88 339.02 310.9 339.17C309.92 339.32 308.74 339.39 307.34 339.39C304.55 339.39 302.11 338.84 300.01 337.75C297.9 336.66 296.23 335.16 294.99 333.27C293.75 331.38 292.97 329.17 292.65 326.63C292.33 324.1 292.56 321.37 293.32 318.45C294.05 315.6 295.16 312.91 296.65 310.37C298.14 307.83 299.94 305.62 302.04 303.73C304.15 301.84 306.52 300.35 309.17 299.25C311.82 298.16 314.67 297.61 317.72 297.61C319.08 297.61 320.14 297.72 320.9 297.93C321.66 298.14 322.31 298.39 322.84 298.68C323.37 298.96 323.88 299.21 324.38 299.43C324.88 299.65 325.56 299.75 326.42 299.75C326.95 299.75 327.42 299.62 327.84 299.38C328.26 299.13 328.63 298.88 328.96 298.61H330.7L326.77 314.42H324.88C324.78 312.66 324.63 310.92 324.43 309.17C324.23 307.43 323.87 305.86 323.36 304.47C322.85 303.08 322.11 301.95 321.15 301.09C320.19 300.23 318.86 299.8 317.17 299.8C315.61 299.8 314.19 300.29 312.92 301.27C311.64 302.25 310.48 303.58 309.44 305.27C308.4 306.96 307.45 308.93 306.61 311.19C305.77 313.45 305.03 315.86 304.4 318.45C303.74 321.04 303.19 323.47 302.76 325.74C302.33 328.01 302.15 329.99 302.24 331.68C302.32 333.37 302.74 334.71 303.51 335.68C304.27 336.66 305.53 337.15 307.29 337.15C308.65 337.15 309.74 336.89 310.57 336.35C311.4 335.82 312.06 335.14 312.56 334.31C313.06 333.48 313.44 332.56 313.7 331.55C313.96 330.54 314.21 329.55 314.45 328.59C314.65 327.8 314.85 326.97 315.05 326.13C315.25 325.28 315.27 324.51 315.12 323.82C314.97 323.12 314.56 322.56 313.88 322.13C313.2 321.7 312.08 321.48 310.52 321.48L310.97 319.69H331.26L330.81 321.48C329.56 321.47 328.57 321.66 327.86 322.04Z" fill="#36BC40"/>
<path d="M333.16 324.41C333.39 323.48 333.62 322.61 333.86 321.8C334.09 320.99 334.19 320.28 334.16 319.66C334.13 319.05 333.92 318.57 333.54 318.22C333.16 317.87 332.49 317.7 331.53 317.7L331.88 316.36L344.91 311.49L341.93 322.78C342.43 321.45 343.04 320.14 343.77 318.83C344.5 317.52 345.29 316.35 346.16 315.33C347.02 314.3 347.97 313.47 348.99 312.84C350.02 312.21 351.08 311.9 352.17 311.9C353.6 311.9 354.61 312.32 355.2 313.17C355.8 314.02 355.96 315.07 355.7 316.33C355.53 317.06 355.28 317.66 354.95 318.15C354.62 318.63 354.23 319 353.78 319.27C353.33 319.54 352.86 319.73 352.36 319.84C351.86 319.96 351.38 320.01 350.92 320.01C350.26 320.01 349.65 319.88 349.1 319.61C348.55 319.35 348.1 319.05 347.73 318.71C347.43 318.64 347.11 318.68 346.79 318.83C346.46 318.98 346.13 319.2 345.82 319.5C345.5 319.8 345.19 320.16 344.88 320.59C344.56 321.02 344.29 321.45 344.06 321.88C343.5 322.94 342.96 324.08 342.44 325.28C341.92 326.49 341.57 327.48 341.37 328.24L338.84 338.38H329.64L333.16 324.41Z" fill="#36BC40"/>
<path d="M353.25 325.6C353.71 323.71 354.55 321.93 355.76 320.25C356.97 318.58 358.43 317.12 360.14 315.87C361.85 314.63 363.73 313.65 365.78 312.94C367.83 312.23 369.96 311.87 372.14 311.87C373.03 311.87 373.9 311.96 374.73 312.14C375.56 312.32 376.31 312.62 376.99 313.04C377.67 313.45 378.22 314.01 378.66 314.71C379.09 315.41 379.36 316.27 379.46 317.3C379.59 318.69 379.28 320.02 378.52 321.28C377.76 322.54 376.65 323.65 375.19 324.61C373.73 325.57 371.94 326.37 369.82 327.02C367.7 327.67 365.33 328.07 362.71 328.24C362.74 328.7 362.83 329.22 362.96 329.78C363.09 330.34 363.34 330.87 363.71 331.37C364.08 331.87 364.59 332.28 365.25 332.61C365.91 332.94 366.79 333.11 367.88 333.11C368.44 333.11 369.11 333.04 369.87 332.89C370.63 332.74 371.44 332.49 372.28 332.14C373.13 331.79 373.99 331.34 374.87 330.77C375.75 330.21 376.6 329.49 377.43 328.63L378.67 329.33C377.71 330.85 376.61 332.24 375.39 333.48C374.16 334.72 372.85 335.78 371.46 336.64C370.07 337.5 368.63 338.17 367.13 338.65C365.64 339.13 364.15 339.37 362.65 339.37C360.86 339.37 359.28 339.01 357.9 338.3C356.52 337.59 355.41 336.61 354.57 335.37C353.73 334.13 353.18 332.67 352.93 330.99C352.67 329.32 352.78 327.52 353.25 325.6ZM362.59 326.2C363.35 326.17 364.06 326.08 364.73 325.95C365.39 325.82 366.04 325.59 366.67 325.25C367.3 324.92 367.93 324.45 368.56 323.86C369.19 323.26 369.87 322.47 370.6 321.47C370.93 321.01 371.27 320.37 371.62 319.56C371.97 318.75 372.17 317.96 372.24 317.2C372.31 316.44 372.2 315.78 371.92 315.24C371.64 314.69 371.05 314.45 370.15 314.52C368.99 314.62 367.98 315.07 367.12 315.86C366.26 316.66 365.53 317.63 364.93 318.79C364.33 319.95 363.84 321.19 363.46 322.52C363.08 323.84 362.79 325.07 362.59 326.2Z" fill="#36BC40"/>
<path d="M379.95 325.6C380.41 323.71 381.25 321.93 382.46 320.25C383.67 318.58 385.13 317.12 386.84 315.87C388.55 314.63 390.43 313.65 392.48 312.94C394.53 312.23 396.66 311.87 398.84 311.87C399.73 311.87 400.6 311.96 401.43 312.14C402.26 312.32 403.01 312.62 403.69 313.04C404.37 313.45 404.92 314.01 405.36 314.71C405.79 315.41 406.06 316.27 406.16 317.3C406.29 318.69 405.98 320.02 405.22 321.28C404.46 322.54 403.35 323.65 401.89 324.61C400.43 325.57 398.64 326.37 396.52 327.02C394.4 327.67 392.03 328.07 389.41 328.24C389.44 328.7 389.53 329.22 389.66 329.78C389.79 330.34 390.04 330.87 390.41 331.37C390.78 331.87 391.29 332.28 391.95 332.61C392.61 332.94 393.49 333.11 394.58 333.11C395.14 333.11 395.81 333.04 396.57 332.89C397.33 332.74 398.14 332.49 398.98 332.14C399.83 331.79 400.69 331.34 401.57 330.77C402.45 330.21 403.3 329.49 404.13 328.63L405.37 329.33C404.41 330.85 403.31 332.24 402.09 333.48C400.86 334.72 399.55 335.78 398.16 336.64C396.77 337.5 395.33 338.17 393.83 338.65C392.34 339.13 390.85 339.37 389.35 339.37C387.56 339.37 385.98 339.01 384.6 338.3C383.22 337.59 382.11 336.61 381.27 335.37C380.43 334.13 379.88 332.67 379.63 330.99C379.38 329.32 379.48 327.52 379.95 325.6ZM389.3 326.2C390.06 326.17 390.77 326.08 391.44 325.95C392.1 325.82 392.75 325.59 393.38 325.25C394.01 324.91 394.64 324.45 395.27 323.86C395.9 323.26 396.58 322.47 397.31 321.47C397.64 321.01 397.98 320.37 398.33 319.56C398.68 318.75 398.88 317.96 398.95 317.2C399.01 316.44 398.91 315.78 398.63 315.24C398.35 314.69 397.76 314.45 396.86 314.52C395.7 314.62 394.69 315.07 393.83 315.86C392.97 316.66 392.24 317.63 391.64 318.79C391.04 319.95 390.55 321.19 390.17 322.52C389.78 323.84 389.5 325.07 389.3 326.2Z" fill="#36BC40"/>
<path d="M433.6 334.25C433.8 334.25 434.05 334.13 434.37 333.9C434.68 333.67 435 333.38 435.31 333.03C435.62 332.68 435.92 332.33 436.2 331.96C436.48 331.6 436.72 331.26 436.92 330.97L438.36 332.06C437.73 333.06 437.05 334 436.32 334.89C435.59 335.79 434.81 336.56 433.98 337.23C433.15 337.89 432.26 338.41 431.3 338.8C430.34 339.18 429.29 339.37 428.17 339.37C427.01 339.37 426.09 339.17 425.41 338.77C424.73 338.37 424.26 337.78 423.99 336.98C423.73 336.18 423.64 335.18 423.74 333.97C423.84 332.76 424.09 331.36 424.49 329.77L426.08 323.21C426.21 322.58 426.38 321.9 426.58 321.17C426.78 320.44 426.86 319.76 426.83 319.13C426.8 318.5 426.58 317.97 426.18 317.54C425.78 317.11 425.07 316.89 424.04 316.89C423.08 316.89 422.28 317.08 421.65 317.46C421.02 317.84 420.62 318.1 420.46 318.23L415.44 338.37H406.19L409.67 324.45C409.9 323.52 410.12 322.65 410.34 321.84C410.56 321.03 410.65 320.32 410.64 319.73C410.62 319.13 410.42 318.66 410.02 318.31C409.62 317.96 408.94 317.79 407.98 317.79L408.38 316.4L421.46 311.38L420.27 316.3C420.6 316.04 421.11 315.65 421.79 315.16C422.47 314.66 423.25 314.17 424.13 313.69C425.01 313.21 425.97 312.79 427.01 312.42C428.05 312.05 429.11 311.87 430.17 311.87C431.33 311.87 432.33 312.09 433.18 312.54C434.03 312.99 434.7 313.58 435.19 314.33C435.69 315.08 435.99 315.94 436.11 316.92C436.23 317.9 436.17 318.93 435.94 320.03L433.65 329.83C433.55 330.19 433.45 330.63 433.35 331.12C433.25 331.62 433.18 332.1 433.13 332.56C433.08 333.02 433.08 333.42 433.13 333.75C433.18 334.09 433.34 334.25 433.6 334.25Z" fill="#36BC40"/>
<path fill-rule="evenodd" clip-rule="evenodd" d="M260.47 197.9L258.4 179.17L183.69 222.3C177.05 226.13 173.01 232.33 172.17 239.95L169.24 266.67L248.95 220.65C257.15 215.92 261.51 207.3 260.47 197.9Z" fill="black"/>
<path fill-rule="evenodd" clip-rule="evenodd" d="M222.91 272.27L268.23 278.49L264.99 247.97L222.91 272.27Z" fill="black"/>
<path fill-rule="evenodd" clip-rule="evenodd" d="M359.59 127.58C359 107.72 351.43 87.9399 337.08 68.7799C335.09 66.1299 333.03 63.5699 330.91 61.0799L363.91 58.0899H328.29H244.92L243.87 51.7099L326.41 56.0999C314.12 42.9699 299.76 32.3399 283.48 24.4699C269.19 17.5599 253.65 12.9799 237.76 10.9299C235.04 10.4399 233.23 9.56992 232.09 8.85992C227.63 6.10992 227.51 2.42992 223.26 0.739918C221.54 0.0599176 219.84 -0.0200824 218.67 0.0199176C217.5 -0.0300824 215.81 0.0499176 214.08 0.739918C209.82 2.42992 209.71 6.10992 205.25 8.85992C204.11 9.55992 202.32 10.4299 199.61 10.9199C183.71 12.9699 168.17 17.5399 153.87 24.4599C137.72 32.2699 123.43 42.7699 111.2 55.7599L75.6 58.9799H108.25H192.23L191.56 65.3599L106.78 60.6899C104.53 63.2999 102.34 65.9699 100.25 68.7599C85.89 87.9299 78.31 107.72 77.72 127.59C77.64 130.38 77.69 133.19 77.89 136C77.78 136.62 77.72 137.26 77.72 137.89C77.72 142.6 80.78 146.95 86.82 150.82C91.83 154.02 99.01 156.99 108.17 159.64C125.94 164.78 150.02 168.47 177.86 170.35H179.8L177.81 188.54L241.35 151.85C248.59 147.67 252.83 140.46 253 132.36C253 132.35 253.01 132.35 253.01 132.34C253.01 132.31 253 132.28 253 132.25C253.02 131.21 252.98 130.16 252.86 129.1L252.44 125.33C255.72 132.66 260.9 141.04 269.15 148.65C272.85 152.06 276.93 155.07 281.28 157.63C273.51 157.62 264.99 157.15 255.74 156.14L257.38 170.35H259.46C287.31 168.47 311.39 164.77 329.17 159.63C338.32 156.98 345.5 154.02 350.5 150.82C356.53 146.96 359.59 142.61 359.59 137.9C359.59 137.26 359.53 136.63 359.42 136C359.61 133.18 359.67 130.36 359.59 127.58ZM94.12 129.65C100.63 126.29 110.46 123.11 122.55 120.47C137.05 117.3 154.27 114.94 173.07 113.49C154.09 120.38 134.61 126 115 130.23C105.57 132.26 95.97 134 86.39 135.42C87.72 133.59 90.38 131.59 94.12 129.65ZM101.28 148.47C91 144.31 86.4 140.3 86.4 140.3C86.42 140.34 86.45 140.37 86.47 140.41C86.44 140.37 86.4 140.33 86.38 140.3C96.3 138.85 106.25 137.05 116.02 134.95C138.53 130.1 160.87 123.44 182.49 115.13C168.77 127.71 152.41 137.22 134.98 142.74C124.08 146.18 112.77 148.09 101.28 148.47ZM112.96 152.39C120.93 151.42 128.78 149.75 136.43 147.33C152.24 142.33 167.19 134.16 180.21 123.48C177.15 130.28 172.31 138.06 164.67 145.1C159.11 150.23 152.6 154.39 145.59 157.37C132.31 156.7 121.51 154.75 112.96 152.39ZM184.47 131.37L180.24 156.29C171.4 157.21 163.26 157.62 155.8 157.62C160.16 155.06 164.24 152.05 167.94 148.64C176.57 140.68 181.87 131.86 185.11 124.3C184.89 126.66 184.68 129.01 184.47 131.37ZM227.54 145.78H209.29V143.25H227.54V145.78ZM210.05 141.4V133.44C210.05 122.38 226.78 122.38 226.78 133.44V141.4H210.05ZM218.87 109.31C218.78 109.31 218.7 109.31 218.62 109.31C206.78 109.31 195.18 109.64 184 110.27C180.02 107.6 177.69 104.45 177.69 101.06C177.69 94.0199 187.64 87.9699 201.91 85.2499H196.11L197.13 72.7599C196.81 72.6199 196.5 72.4699 196.21 72.3199C194.19 71.2799 193.04 70.0899 193.04 68.8099C193.04 67.2299 194.81 65.7799 197.8 64.5899V64.5299L198.62 54.5399C198.67 53.8699 198.76 53.2099 198.88 52.5599C198.75 52.4899 198.66 52.4199 198.53 52.3599H198.52C198.44 52.3199 198.39 52.2699 198.31 52.2299C198.04 52.0699 197.77 51.9099 197.55 51.7499C197.46 51.6799 197.38 51.6099 197.3 51.5399C197.11 51.3799 196.91 51.2199 196.77 51.0599C196.67 50.9499 196.61 50.8399 196.53 50.7199C196.44 50.5899 196.33 50.4599 196.27 50.3299C196.16 50.0799 196.09 49.8199 196.09 49.5599C196.09 49.3699 196.12 49.1699 196.19 48.9799C196.2 48.9499 196.23 48.9099 196.24 48.8799C196.3 48.7199 196.37 48.5699 196.47 48.4199C196.5 48.3699 196.56 48.3199 196.59 48.2799C196.69 48.1399 196.8 48.0099 196.93 47.8799C196.97 47.8499 197.01 47.8099 197.05 47.7799C197.21 47.6399 197.37 47.4899 197.56 47.3499C197.6 47.3199 197.66 47.2899 197.7 47.2599C197.9 47.1199 198.11 46.9799 198.35 46.8499C198.4 46.8199 198.46 46.7999 198.51 46.7699C198.76 46.6299 199.02 46.4999 199.3 46.3699C199.35 46.3499 199.4 46.3299 199.45 46.3099C199.75 46.1799 200.06 46.0499 200.39 45.9199C200.45 45.8999 200.52 45.8799 200.57 45.8599C200.9 45.7399 201.23 45.6199 201.59 45.5099C203.33 42.7299 205.72 40.4399 208.54 38.7899H208.52H208.53H208.52C208.53 38.7899 208.54 38.7799 208.55 38.7799C209.75 38.0799 211.04 37.4999 212.38 37.0599C213.96 35.6999 214.28 34.1299 216.24 33.3499C216.94 33.0699 217.62 32.9799 218.19 32.9699C218.37 32.9599 218.55 32.9699 218.7 32.9699C218.85 32.9599 219.02 32.9599 219.21 32.9699C219.77 32.9899 220.46 33.0799 221.16 33.3499C223.12 34.1299 223.44 35.6999 225.02 37.0599C226.36 37.4999 227.64 38.0799 228.84 38.7799C228.86 38.7799 228.87 38.7899 228.88 38.7899H228.85C231.66 40.4399 234.05 42.7299 235.79 45.4999C239.23 46.5899 241.33 48.0199 241.33 49.5799C241.33 50.5899 240.44 51.5299 238.91 52.3699C238.75 52.2999 238.58 52.2399 238.41 52.1799C231.11 49.2799 218.7 49.5799 218.7 49.5799C218.7 49.5799 218.7 52.3799 218.7 55.8099C218.7 57.6399 218.7 59.6499 218.7 61.5199C229.71 61.2999 236.19 63.0799 239.63 64.5399V64.5999C242.62 65.7899 244.39 67.2499 244.39 68.8199C244.39 70.2699 242.88 71.6299 240.3 72.7599L241.32 85.2499H235.52C249.79 87.9699 259.74 94.0199 259.74 101.06C259.74 104.45 257.42 107.6 253.43 110.27C242.31 109.64 230.7 109.31 218.87 109.31ZM291.53 157.38C284.5 154.4 277.99 150.23 272.42 145.1C264.78 138.06 259.94 130.28 256.88 123.48C269.9 134.16 284.85 142.33 300.66 147.33C308.36 149.77 316.27 151.44 324.29 152.41C315.7 154.77 304.87 156.72 291.53 157.38ZM336.02 148.48C324.46 148.11 313.08 146.2 302.12 142.74C284.69 137.23 268.33 127.71 254.61 115.13C276.23 123.43 298.56 130.1 321.08 134.95C330.9 137.07 340.91 138.87 350.89 140.33C350.64 140.54 346.02 144.43 336.02 148.48ZM350.82 140.45C350.85 140.41 350.87 140.37 350.9 140.33C350.91 140.33 350.91 140.33 350.92 140.33C350.89 140.36 350.85 140.41 350.82 140.45ZM322.09 130.23C302.45 126 282.96 120.37 263.96 113.47C282.87 114.92 300.19 117.29 314.76 120.47C326.85 123.11 336.68 126.28 343.19 129.65C346.96 131.6 349.63 133.61 350.94 135.45C341.29 134.04 331.6 132.28 322.09 130.23Z" fill="black"/>
</svg>
