<svg width="55" height="47" viewBox="0 0 55 47" fill="none" xmlns="http://www.w3.org/2000/svg">
<path d="M21.168 0L21.312 1.87199C14.496 6.096 11.088 11.952 11.088 19.44C11.088 20.4 11.184 21.36 11.376 22.32C13.488 21.936 15.648 22.128 17.856 22.896C23.136 24.816 25.776 28.56 25.776 34.128C25.776 35.76 25.488 37.296 24.912 38.736C22.704 43.92 18.864 46.512 13.392 46.512C10.128 46.512 7.296 45.36 4.896 43.056C1.632 39.888 0 35.568 0 30.096C0 17.904 7.056 7.872 21.168 0ZM50.112 0L50.256 1.87199C49.584 2.352 48.576 3.12 47.232 4.176C42.528 8.39999 40.176 13.584 40.176 19.728C40.176 20.592 40.224 21.456 40.32 22.32C42.528 21.84 44.688 22.032 46.8 22.896C52.08 24.912 54.72 28.656 54.72 34.128C54.72 35.76 54.432 37.296 53.856 38.736C51.648 44.016 47.808 46.656 42.336 46.656C39.072 46.656 36.24 45.456 33.84 43.056C30.576 39.792 28.944 35.472 28.944 30.096C28.944 18.864 34.752 9.552 46.368 2.16C47.04 1.776 48.288 1.056 50.112 0Z" fill="#004837"/>
</svg>
